<?xml version="1.0" standalone="no"?><!DOCTYPE svg PUBLIC "-//W3C//DTD SVG 1.1//EN" "http://www.w3.org/Graphics/SVG/1.1/DTD/svg11.dtd"><svg t="1599204898075" class="icon" viewBox="0 0 1024 1024" version="1.1" xmlns="http://www.w3.org/2000/svg" p-id="1893" xmlns:xlink="http://www.w3.org/1999/xlink" width="200" height="200"><defs><style type="text/css"></style></defs><path d="M827.7248 366.4384C797.8496 224.0768 669.8496 115.2 512 115.2c-123.776 0-230.4 67.0336-281.6 167.552C98.1248 299.4176 0 404.1216 0 533.9776c0 138.1632 115.2256 251.2384 256 251.2384h554.624c119.5008 0 213.376-92.16 213.376-209.4464 0-108.8384-89.6-200.96-196.2752-209.344" fill="#1989FA" opacity=".3" p-id="1894"></path><path d="M115.2 844.8m25.6 0l755.2 0q25.6 0 25.6 25.6l0 0q0 25.6-25.6 25.6l-755.2 0q-25.6 0-25.6-25.6l0 0q0-25.6 25.6-25.6Z" fill="#1989FA" p-id="1895"></path><path d="M647.5264 555.264L461.952 648.0384a51.2 51.2 0 0 1-74.0864-45.7984V416.6912a51.2 51.2 0 0 1 74.0864-45.7984l185.5616 92.7744a51.2 51.2 0 0 1 0 91.5968z" fill="#1989FA" p-id="1896"></path></svg>