<?xml version="1.0" standalone="no"?><!DOCTYPE svg PUBLIC "-//W3C//DTD SVG 1.1//EN" "http://www.w3.org/Graphics/SVG/1.1/DTD/svg11.dtd"><svg t="1589623072712" class="icon" viewBox="0 0 1065 1024" version="1.1" xmlns="http://www.w3.org/2000/svg" p-id="29661" xmlns:xlink="http://www.w3.org/1999/xlink" width="208.0078125" height="200"><defs><style type="text/css"></style></defs><path d="M944.588 957.127H919.51c2.09-7.315 3.135-14.629 3.135-20.898V543.347c0-17.763-14.629-31.347-32.392-31.347s-32.392 13.584-32.392 31.347v391.837c0 15.673-7.314 20.898-31.347 20.898H240.327c-24.033 0-31.347-5.225-31.347-20.898V543.347c0-17.763-14.629-31.347-32.392-31.347s-32.392 13.584-32.392 31.347v391.837c0 7.314 1.045 13.583 3.135 20.898h-25.078c-17.763 1.045-31.347 14.628-31.347 31.347s13.584 30.302 31.347 31.347h823.38c17.763 0 32.391-13.584 32.391-31.347s-14.628-30.302-33.436-30.302z" p-id="29662"></path><path d="M1051.167 521.404L571.56 25.078c-10.449-9.405-20.898-18.809-38.661-18.809-11.494 0-24.033 6.27-37.616 18.809L14.629 521.404c-6.27 6.27-9.405 13.584-8.36 21.943 0 8.36 3.135 15.673 9.404 21.943 12.54 11.494 32.392 12.539 44.931 1.045L532.898 78.367l471.249 487.968c6.27 6.27 14.629 9.404 22.988 9.404s16.718-3.135 22.987-9.404c6.27-6.27 9.405-13.584 9.405-21.943 1.044-9.404-2.09-16.719-8.36-22.988z" p-id="29663"></path><path d="M703.216 457.665c-3.134-11.494-12.538-19.853-24.032-22.987-11.494-3.135-24.033 0-32.392 8.359L531.853 552.75 417.96 444.081c-12.539-11.493-33.437-11.493-45.975 0-6.27 6.27-9.404 13.584-9.404 21.943s3.134 16.719 9.404 21.943l107.624 102.4h-83.592c-17.763 0-32.392 13.584-32.392 31.347s14.63 31.347 32.392 31.347h104.49v67.919h-104.49c-11.494 0-21.943 6.269-28.212 15.673-6.27 9.404-6.27 21.943 0 31.347s16.718 15.673 28.212 15.673h104.49v99.266c0 11.494 5.225 21.943 15.674 28.212 5.224 3.135 10.449 4.18 16.718 4.18 5.224 0 11.494-1.045 16.718-4.18 10.45-6.27 16.719-16.718 15.674-28.212v-99.266h104.49c17.763 0 32.391-13.583 32.391-31.346s-14.628-31.347-32.391-31.347H565.29V653.06h104.49c11.493 1.045 22.987-5.224 29.257-14.628 6.27-10.45 6.27-22.988 0-32.392-6.27-10.45-17.764-15.674-29.257-14.629h-84.637l107.624-103.445c9.404-7.314 13.584-19.853 10.45-30.302z" p-id="29664"></path></svg>