<svg xmlns="http://www.w3.org/2000/svg" width="21.379" height="26.128" viewBox="0 0 21.379 26.128">
    <path data-name="人数 (1)" d="M156.02 77.8a5.835 5.835 0 1 1 5.731-5.834 5.784 5.784 0 0 1-5.731 5.834m3.919 1.067a8 8 0 0 0 3.91-6.9 7.831 7.831 0 1 0-15.659 0 7.985 7.985 0 0 0 4.025 6.965 10.883 10.883 0 0 0-6.742 10.113 1.064 1.064 0 1 0 2.127 0 8.568 8.568 0 1 1 17.135-.16 1.066 1.066 0 1 0 2.116.16 10.885 10.885 0 0 0-6.912-10.178" transform="translate(-145.472 -64)" style="fill:#1372ee"/>
</svg>
