<?xml version="1.0" standalone="no"?><!DOCTYPE svg PUBLIC "-//W3C//DTD SVG 1.1//EN" "http://www.w3.org/Graphics/SVG/1.1/DTD/svg11.dtd"><svg t="1589272666339" class="icon" viewBox="0 0 1024 1024" version="1.1" xmlns="http://www.w3.org/2000/svg" p-id="12805" xmlns:xlink="http://www.w3.org/1999/xlink" width="200" height="200"><defs><style type="text/css"></style></defs><path d="M513.017 7.118C232.357 7.118 4.576 234.9 4.576 515.56 4.576 796.22 232.357 1024 513.016 1024c280.66 0 508.442-227.782 508.442-508.44 0-280.66-227.782-508.442-508.441-508.442z m0 916.21c-225.748 0-408.787-182.021-408.787-407.769 0-225.748 183.04-408.786 408.787-408.786 225.748 0 408.786 183.038 408.786 408.786-1.017 225.748-183.038 407.77-408.786 407.77z" fill="#333333" p-id="12806"></path><path d="M239.476 516.576a27.5 27.5 0 1 0 559.285 0 27.5 27.5 0 1 0-559.285 0z" fill="#333333" p-id="12807"></path></svg>