<?xml version="1.0" standalone="no"?><!DOCTYPE svg PUBLIC "-//W3C//DTD SVG 1.1//EN" "http://www.w3.org/Graphics/SVG/1.1/DTD/svg11.dtd"><svg t="1589533843889" class="icon" viewBox="0 0 1024 1024" version="1.1" xmlns="http://www.w3.org/2000/svg" p-id="54936" xmlns:xlink="http://www.w3.org/1999/xlink" width="200" height="200"><defs><style type="text/css"></style></defs><path d="M702.798367 606.040816a71.88898 71.88898 0 1 1 71.68-71.68A72.306939 72.306939 0 0 1 702.798367 606.040816z m143.56898-32.600816h110.968163a41.795918 41.795918 0 0 0 39.079184-39.079184 41.795918 41.795918 0 0 0-39.079184-39.288163H846.367347a152.555102 152.555102 0 0 0-143.56898-110.968163 150.256327 150.256327 0 0 0 0 300.303673 141.688163 141.688163 0 0 0 143.56898-110.968163zM311.170612 266.866939a71.88898 71.88898 0 1 1 71.88898-71.88898 72.097959 72.097959 0 0 1-71.88898 71.88898z m150.256327-71.88898a151.928163 151.928163 0 0 0-150.256327-150.047347A152.973061 152.973061 0 0 0 167.183673 155.898776H56.633469A41.795918 41.795918 0 0 0 17.554286 194.977959a41.795918 41.795918 0 0 0 39.079183 39.288163H167.183673a152.973061 152.973061 0 0 0 143.56898 110.968164c78.367347 6.478367 150.047347-65.410612 150.047347-150.256327z m-150.256327 750.654694a71.88898 71.88898 0 1 1 71.88898-71.68 72.097959 72.097959 0 0 1-71.88898 71.68z m150.256327-71.68a147.748571 147.748571 0 0 0-150.256327-150.047347A152.764082 152.764082 0 0 0 167.183673 834.66449H56.633469a39.288163 39.288163 0 0 0 0 78.367347H167.183673A152.973061 152.973061 0 0 0 311.170612 1024a151.719184 151.719184 0 0 0 150.047347-150.047347z m45.557551-339.382857a34.690612 34.690612 0 0 0-39.079184-39.288163H56.633469a34.690612 34.690612 0 0 0-39.079183 39.288163 34.481633 34.481633 0 0 0 39.079183 39.079184h417.959184c19.435102 0 32.600816-12.956735 32.600816-39.079184z m0-339.591837a34.690612 34.690612 0 0 0 39.288163 39.288163h417.959184A41.795918 41.795918 0 0 0 1003.102041 194.977959a37.825306 37.825306 0 0 0-39.288163-39.079183h-424.228572a36.571429 36.571429 0 0 0-32.600816 39.079183z m0 678.974694a34.690612 34.690612 0 0 0 39.288163 39.079184h417.959184A41.795918 41.795918 0 0 0 1003.102041 873.952653a37.825306 37.825306 0 0 0-39.288163-39.288163h-424.228572c-19.644082 0-32.600816 13.165714-32.600816 39.288163z" p-id="54937"></path></svg>