<?xml version="1.0" standalone="no"?><!DOCTYPE svg PUBLIC "-//W3C//DTD SVG 1.1//EN" "http://www.w3.org/Graphics/SVG/1.1/DTD/svg11.dtd"><svg t="1589532879027" class="icon" viewBox="0 0 1381 1024" version="1.1" xmlns="http://www.w3.org/2000/svg" p-id="31587" xmlns:xlink="http://www.w3.org/1999/xlink" width="269.7265625" height="200"><defs><style type="text/css"></style></defs><path d="M689.050473 186.74877a419.07971 419.07971 0 0 1 416.109962 463.556858 788.778736 788.778736 0 0 1-152.70027 52.212304 994.520077 994.520077 0 0 1-150.283034 22.929213 75.279645 75.279645 0 0 0-66.439466-39.573612H651.894098a75.141517 75.141517 0 1 0 0 150.283034h83.843567a75.141517 75.141517 0 0 0 69.063894-45.098723 1158.339634 1158.339634 0 0 0 162.162024-24.517682 840.852912 840.852912 0 0 0 121.828709-37.985142A418.665327 418.665327 0 1 1 689.257664 186.679706z m3.176939-186.472514a608.31478 608.31478 0 0 0-581.448926 433.514064h-21.271679A89.783062 89.783062 0 0 0 0.138128 523.158999v138.818427a89.783062 89.783062 0 0 0 89.368679 89.783063h117.40862V445.600246a500.506041 500.506041 0 0 1 124.31501-200.285294A512.039712 512.039712 0 0 1 1176.158119 436.000364v316.450764h115.751086A89.783062 89.783062 0 0 0 1381.277884 663.082448V523.089935a89.783062 89.783062 0 0 0-89.368679-89.368679h-18.163804A608.31478 608.31478 0 0 0 692.296476 0.207192z" p-id="31588" fill="#333333"></path></svg>