<?xml version="1.0" standalone="no"?><!DOCTYPE svg PUBLIC "-//W3C//DTD SVG 1.1//EN" "http://www.w3.org/Graphics/SVG/1.1/DTD/svg11.dtd"><svg t="1589533470170" class="icon" viewBox="0 0 1024 1024" version="1.1" xmlns="http://www.w3.org/2000/svg" p-id="46053" xmlns:xlink="http://www.w3.org/1999/xlink" width="200" height="200"><defs><style type="text/css"></style></defs><path d="M278.475539 329.767586l21.065621 0c9.674733 0.022513 19.884677 7.557116 22.738795 16.763802l12.126675 29.402657c4.547759 8.537444 2.708802 21.109784-4.124093 27.931143L315.324258 418.777829c-6.799125 6.843872-6.799125 18.012236 0 24.855084l24.878616 24.855084c6.810382 6.821359 17.97818 6.821359 24.822332 0l14.968513-14.957667c6.800148-6.79987 19.33821-8.671497 27.831999-4.057409l29.460146 12.082176c9.228553 2.87549 16.753232 13.107529 16.753232 22.781866l0 21.020756c0 9.630335 7.902294 17.543561 17.599541 17.543561l35.111074 0c9.618449 0 17.554514-7.913227 17.554514-17.543561l0-21.020756c0-9.674337 7.57994-19.906375 16.764489-22.781866l29.426375-12.082176c8.51528-4.614088 21.088135-2.742461 27.932287 4.057409l14.868225 14.957667c6.866666 6.821359 18.012974 6.821359 24.856103 0l24.856103-24.855084c6.866666-6.843872 6.866666-18.011212 0-24.855084l-14.935766-14.912641c-6.821639-6.821359-8.694366-19.393699-4.124093-27.931143l12.105185-29.402657c2.875608-9.206686 13.15207-16.741289 22.782799-16.741289l21.088135 0c9.629706 0 17.521767-7.913227 17.521767-17.566074L717.445835 277.070386c0-9.674337-7.892061-17.566074-17.521767-17.566074l-21.088135 0c-9.674733 0-19.907191-7.557116-22.782799-16.763802l-12.105185-29.424146c-4.570273-8.493441-2.697546-21.043269 4.124093-27.886117l14.935766-14.913665c6.866666-6.865361 6.866666-18.056238 0-24.877597l-24.856103-24.832572c-6.844152-6.821359-17.989437-6.821359-24.856103 0l-14.935766 14.935154c-6.821639 6.843872-19.394494 8.694009-27.909773 4.123924l-29.381348-12.082176c-9.184549-2.854001-16.764489-13.107529-16.764489-22.781866L524.304226 83.936691c0-9.651824-7.936065-17.566074-17.554514-17.566074l-35.111074 0c-9.68599 0-17.599541 7.913227-17.599541 17.566074l0 21.065781c0 9.674337-7.524679 19.928888-16.753232 22.781866l-29.403862 12.082176c-8.52756 4.570085-21.055388 2.719948-27.877026-4.123924l-14.980793-14.935154c-6.844152-6.821359-18.012974-6.821359-24.822332 0l-24.833589 24.832572c-6.844152 6.821359-6.844152 18.011212 0 24.855084l14.913252 14.935154c6.854386 6.843872 8.716879 19.393699 4.124093 27.886117l-12.092905 29.424146c-2.864351 9.229199-13.096809 16.785292-22.771543 16.785292l-21.065621-0.021489c-9.663476 0-17.578051 7.890714-17.578051 17.566074l0 35.109636C260.897488 321.854359 268.812063 329.767586 278.475539 329.767586zM489.227946 206.808136c48.497491 0 87.798153 39.322587 87.798153 87.805812 0 48.484248-39.300661 87.784322-87.798153 87.784322-48.508748 0-87.820666-39.300075-87.820666-87.784322C401.40728 246.1297 440.720221 206.808136 489.227946 206.808136zM785.929315 728.340233 785.929315 568.55404 215.242858 568.55404l0 159.78517L101.105772 728.33921l0 228.26482 319.584457 0L420.690228 728.340233 260.897488 728.340233l0-91.306542 479.376173 0 0 91.306542-136.964913 0 0 228.26482 319.584457 0L922.893205 728.340233 785.929315 728.340233z" p-id="46054" data-spm-anchor-id="a313x.7781069.0.i45" class="selected"></path></svg>