<?xml version="1.0" standalone="no"?><!DOCTYPE svg PUBLIC "-//W3C//DTD SVG 1.1//EN" "http://www.w3.org/Graphics/SVG/1.1/DTD/svg11.dtd"><svg t="1589532145386" class="icon" viewBox="0 0 1097 1024" version="1.1" xmlns="http://www.w3.org/2000/svg" p-id="10579" xmlns:xlink="http://www.w3.org/1999/xlink" width="214.2578125" height="200"><defs><style type="text/css"></style></defs><path d="M381.878857 508.562286H279.625143a25.819429 25.819429 0 0 1-25.453714-26.112c0-14.482286 11.337143-26.112 25.453714-26.112h71.168l-57.929143-103.131429a26.916571 26.916571 0 0 1 10.459429-34.304 25.453714 25.453714 0 0 1 34.157714 7.826286l70.070857 124.562286 70.144-124.562286a25.453714 25.453714 0 0 1 34.230857-8.045714c11.702857 6.948571 16.310857 21.942857 10.459429 34.523428l-58.075429 103.131429h70.802286c14.116571 0 25.526857 11.702857 25.526857 26.112a25.819429 25.819429 0 0 1-25.526857 26.185143H432.786286v52.224h102.4c13.531429 0.731429 24.137143 12.214857 24.137143 26.112 0 13.897143-10.605714 25.453714-24.137143 26.112h-102.4v78.555428a26.331429 26.331429 0 0 1-15.798857 23.917714 25.161143 25.161143 0 0 1-35.108572-23.917714V613.083429H279.625143a25.819429 25.819429 0 0 1-25.453714-26.112c0-14.409143 11.337143-26.112 25.453714-26.112H381.805714v-52.297143z m427.739429 23.698285a286.500571 286.500571 0 0 0-57.636572-16.384 617.545143 617.545143 0 0 0-11.702857-48.713142 400.603429 400.603429 0 0 0-101.449143-173.787429 424.009143 424.009143 0 0 0-81.773714-64.804571 273.993143 273.993143 0 0 0-35.693714-18.870858l-226.304-0.658285a273.773714 273.773714 0 0 0-37.376 19.529143 423.862857 423.862857 0 0 0-81.773715 64.804571 400.603429 400.603429 0 0 0-101.449142 173.860571c-29.257143 102.985143-24.868571 183.515429-0.877715 243.346286 6.875429 17.115429 13.458286 27.794286 16.969143 32.182857l3.291429 5.12c8.411429 16.676571 36.132571 32.914286 56.832 32.914286h256.731428v55.515429H150.674286c-39.204571 0-84.406857-25.892571-103.350857-60.123429a196.754286 196.754286 0 0 1-23.698286-44.470857c-28.818286-71.533714-33.718857-165.010286-1.024-280.064a455.241143 455.241143 0 0 1 115.346286-197.778286c32.109714-32.621714 68.608-60.416 108.397714-82.505143l-42.057143-81.188571C180.516571 44.617143 206.116571 0 256.219429 0H407.405714v55.515429H256.292571c-9.069714 0-8.996571-0.292571-4.388571 8.557714l48.201143 92.745143h214.528L562.834286 64.073143c4.534857-8.777143 4.754286-8.557714-4.388572-8.557714H407.405714V0h151.113143c50.176 0 75.776 44.617143 52.077714 90.185143l-42.203428 81.188571A479.085714 479.085714 0 0 1 676.790857 253.805714a456.192 456.192 0 0 1 115.419429 197.851429c7.972571 28.16 13.677714 55.003429 17.408 80.603428z m-398.116572 304.054858H407.405714v-55.588572h7.314286a93.403429 93.403429 0 0 0-3.291429 55.588572z m535.552 33.426285a9.654857 9.654857 0 0 1 3.803429 7.68c0 3.072-1.462857 5.924571-3.803429 7.753143l-85.723428 63.853714a9.142857 9.142857 0 0 1-9.654857 0.731429 9.581714 9.581714 0 0 1-5.12-8.484571v-41.545143H566.345143a22.089143 22.089143 0 0 1-20.626286-22.308572c0-11.849143 9.069714-21.650286 20.626286-22.235428h280.210286v-41.691429c0-3.584 1.974857-6.875429 5.12-8.484571a9.142857 9.142857 0 0 1 9.654857 0.731428l85.723428 64z m-398.628571-137.508571a9.654857 9.654857 0 0 1-3.803429-7.753143c0-3.072 1.462857-5.851429 3.803429-7.68l85.723428-63.926857a9.142857 9.142857 0 0 1 9.654858-0.731429 9.581714 9.581714 0 0 1 5.12 8.557715V702.171429h280.137142a22.089143 22.089143 0 0 1 20.626286 22.308571 22.089143 22.089143 0 0 1-20.553143 22.308571H648.923429v41.618286c0 3.584-1.974857 6.875429-5.12 8.484572a9.142857 9.142857 0 0 1-9.654858-0.731429l-85.723428-63.926857z" fill="#333333" p-id="10580" data-spm-anchor-id="a313x.7781069.0.i6" class="selected"></path></svg>