<?xml version="1.0" standalone="no"?><!DOCTYPE svg PUBLIC "-//W3C//DTD SVG 1.1//EN" "http://www.w3.org/Graphics/SVG/1.1/DTD/svg11.dtd"><svg t="1589277170999" class="icon" viewBox="0 0 1024 1024" version="1.1" xmlns="http://www.w3.org/2000/svg" p-id="8853" xmlns:xlink="http://www.w3.org/1999/xlink" width="200" height="200"><defs><style type="text/css"></style></defs><path d="M888 56 144 56c-35.328 0-64 28.672-64 64L80 896c0 35.392 28.672 64 64 64l744 0c35.392 0 64-28.608 64-64L952 120C952 84.672 923.392 56 888 56zM776 780.032 256 780.032l0-104 520 0L776 780.032zM776 556.032 256 556.032 256 452.032l520 0L776 556.032zM776 340.032 256 340.032 256 236.032l520 0L776 340.032z" p-id="8854" fill="#333333"></path></svg>