<?xml version="1.0" standalone="no"?><!DOCTYPE svg PUBLIC "-//W3C//DTD SVG 1.1//EN" "http://www.w3.org/Graphics/SVG/1.1/DTD/svg11.dtd"><svg t="1589537197477" class="icon" viewBox="0 0 1024 1024" version="1.1" xmlns="http://www.w3.org/2000/svg" p-id="63496" xmlns:xlink="http://www.w3.org/1999/xlink" width="16" height="16"><defs><style type="text/css"></style></defs><path d="M993.28 512A489.472 489.472 0 0 0 880.64 198.8608a33.3824 33.3824 0 0 0-3.4816-4.096 491.52 491.52 0 0 0-751.616 0 33.3824 33.3824 0 0 0-3.4816 4.096 490.2912 490.2912 0 0 0-2.4576 621.3632 30.1056 30.1056 0 0 0 7.9872 9.4208 491.52 491.52 0 0 0 746.496 0 29.0816 29.0816 0 0 0 8.6016-10.0352A488.6528 488.6528 0 0 0 993.28 512zM73.3184 541.9008h195.9936a981.4016 981.4016 0 0 0 21.7088 182.6816 646.5536 646.5536 0 0 0-133.5296 43.2128 425.984 425.984 0 0 1-84.1728-225.8944z m83.7632-286.72a659.0464 659.0464 0 0 0 133.9392 43.2128 974.6432 974.6432 0 0 0-21.7088 182.0672H73.3184a425.1648 425.1648 0 0 1 83.7632-225.28z m773.12 225.28h-195.9936a974.6432 974.6432 0 0 0-21.7088-182.0672 659.0464 659.0464 0 0 0 133.9392-43.2128 425.1648 425.1648 0 0 1 83.7632 225.28z m-257.6384 61.44a903.3728 903.3728 0 0 1-20.48 171.6224 1044.48 1044.48 0 0 0-300.2368 0 903.3728 903.3728 0 0 1-20.48-171.6224z m-341.6064-61.44a916.2752 916.2752 0 0 1 20.48-171.008 1022.3616 1022.3616 0 0 0 150.3232 10.8544 1024 1024 0 0 0 150.3232-10.8544 916.2752 916.2752 0 0 1 20.48 171.008zM696.32 239.2064A487.424 487.424 0 0 0 632.0128 102.4a431.5136 431.5136 0 0 1 173.056 105.0624A633.4464 633.4464 0 0 1 696.32 239.2064z m-61.44 10.6496a1012.736 1012.736 0 0 1-134.144 9.0112A1012.736 1012.736 0 0 1 368.64 249.856C401.408 144.5888 453.2224 81.92 501.76 81.92s100.352 62.6688 134.144 167.936z m-327.68-10.6496a633.4464 633.4464 0 0 1-108.1344-32.768A431.5136 431.5136 0 0 1 371.5072 102.4 487.424 487.424 0 0 0 307.2 239.2064z m0 544.5632A485.7856 485.7856 0 0 0 371.5072 921.6a430.08 430.08 0 0 1-172.4416-104.6528A628.736 628.736 0 0 1 307.2 783.7696z m61.44-10.4448a977.92 977.92 0 0 1 267.8784 0C601.7024 877.9776 550.0928 942.08 501.76 942.08s-99.9424-64.1024-133.12-168.7552z m327.68 10.4448a628.736 628.736 0 0 1 107.7248 32.5632 430.08 430.08 0 0 1-172.032 105.2672A485.7856 485.7856 0 0 0 696.32 783.7696z m15.7696-59.1872a981.4016 981.4016 0 0 0 21.7088-182.6816h195.9936a425.984 425.984 0 0 1-84.1728 225.28 646.5536 646.5536 0 0 0-133.12-42.5984z" p-id="63497"></path></svg>