<?xml version="1.0" standalone="no"?><!DOCTYPE svg PUBLIC "-//W3C//DTD SVG 1.1//EN" "http://www.w3.org/Graphics/SVG/1.1/DTD/svg11.dtd"><svg t="1589623282787" class="icon" viewBox="0 0 1024 1024" version="1.1" xmlns="http://www.w3.org/2000/svg" p-id="39397" xmlns:xlink="http://www.w3.org/1999/xlink" width="200" height="200"><defs><style type="text/css"></style></defs><path d="M744 887.3c-20.1 0-38.1-1-52.2-1.8-8-0.4-14.9-0.8-19-0.8-17.4 0-31.5-14.1-31.5-31.5s14.1-31.5 31.5-31.5c5.8 0 13.2 0.4 22.5 0.9 44.9 2.5 138.4 7.6 180.3-32 14.5-13.8 21.6-32.5 21.6-57.2V279.8c-58.5 58.7-139.5 139.9-139.5 139.9L713 375.2s162-162.5 193.4-193.9l53.8-53.8v606c0 42.4-13.9 77-41.3 103-45.4 42.9-118.3 50.8-174.9 50.8zM666 246.9H95.5c-17.4 0-31.5-14.1-31.5-31.5s14.1-31.5 31.5-31.5H666c17.4 0 31.5 14.1 31.5 31.5s-14.1 31.5-31.5 31.5zM565.2 568.1H105c-17.4 0-31.5-14.1-31.5-31.5s14.1-31.5 31.5-31.5h460.2c17.4 0 31.5 14.1 31.5 31.5s-14.1 31.5-31.5 31.5zM506.8 886.5h-394c-17.4 0-31.5-14.1-31.5-31.5s14.1-31.5 31.5-31.5h394c17.4 0 31.5 14.1 31.5 31.5 0.1 17.4-14 31.5-31.5 31.5z" p-id="39398"></path></svg>