<svg xmlns="http://www.w3.org/2000/svg" width="28.121" height="26.128" viewBox="0 0 28.121 26.128">
    <path data-name="路径 18" d="M661.065 184.859a8 8 0 0 0-4.428-6.384 5.671 5.671 0 0 0-3.506-10.127 5.728 5.728 0 0 0-1.349.17l-.4.093.273.3a7.835 7.835 0 0 1 1.014 1.375l.072.124.144-.005a1.064 1.064 0 0 0 .134-.015.945.945 0 0 1 .108-.01 3.643 3.643 0 0 1 0 7.285c-.036 0-.077-.005-.129-.01a.766.766 0 0 0-.108-.01l-.149-.01-.072.129a7.535 7.535 0 0 1-1.138 1.508l-.541.556.757-.16a5.817 5.817 0 0 1 1.22-.129 5.955 5.955 0 0 1 5.941 5.375l.021.211h2.126v-.237l.005-.026z" transform="translate(-632.944 -165.078)" style="fill:#ba17d4"/>
    <path data-name="路径 19" d="M40.025 75.905A11.508 11.508 0 0 0 35.8 70.2a11.493 11.493 0 0 0-2.821-1.467 8.227 8.227 0 1 0-8.588.4 11.457 11.457 0 0 0-4.726 4.016A11.325 11.325 0 0 0 17.7 79.54v.237h1.926v-.237a.591.591 0 0 0-.005-.1c0-.026-.005-.046-.005-.062a9.375 9.375 0 1 1 18.751-.005.317.317 0 0 1-.005.067c0 .031-.005.062-.005.093v.237h2.255v-.237a11.427 11.427 0 0 0-.587-3.63zm-5.488-14a6.178 6.178 0 1 1-6.178-6.178 6.183 6.183 0 0 1 6.178 6.173z" transform="translate(-17.702 -53.648)" style="fill:#ba17d4"/>
</svg>
