<?xml version="1.0" standalone="no"?><!DOCTYPE svg PUBLIC "-//W3C//DTD SVG 1.1//EN" "http://www.w3.org/Graphics/SVG/1.1/DTD/svg11.dtd"><svg t="1595302658542" class="icon" viewBox="0 0 1024 1024" version="1.1" xmlns="http://www.w3.org/2000/svg" p-id="1039" xmlns:xlink="http://www.w3.org/1999/xlink" width="200" height="200"><defs><style type="text/css"></style></defs><path d="M343.2 819.6c-5.1 0-10.2-1.9-14.2-5.6l-68.3-63c-4.3-4-6.8-9.6-6.8-15.4V204.2c0-11.6 9.4-21 21-21h465.7c11.6 0 21 9.4 21 21v531.4c0 6.3-2.8 12.2-7.6 16.2l-76 63c-7.1 5.9-17.2 6.5-24.9 1.4l-82.3-53.8-53.2 51.4c-7.8 7.6-20.1 7.9-28.4 0.7l-59.8-52.1-73.9 53.3c-3.7 2.6-8 3.9-12.3 3.9z m225.1-105c4 0 8 1.1 11.5 3.4l83.4 54.5 56.5-46.8V225.2H296v501.2l48.9 45.1 73.4-53c7.9-5.7 18.7-5.2 26.1 1.2l57.9 50.4 51.4-49.6c4-3.9 9.3-5.9 14.6-5.9z m172.3 21h0.2-0.2z" p-id="1040"></path><path d="M486.3 380H350.6c-11.6 0-21-9.4-21-21s9.4-21 21-21h135.7c11.6 0 21 9.4 21 21s-9.4 21-21 21zM552.7 488.7H350.6c-11.6 0-21-9.4-21-21s9.4-21 21-21h202.1c11.6 0 21 9.4 21 21s-9.4 21-21 21zM609.4 600.1H350.6c-11.6 0-21-9.4-21-21s9.4-21 21-21h258.8c11.6 0 21 9.4 21 21s-9.4 21-21 21z" p-id="1041"></path></svg>