<?xml version="1.0" standalone="no"?><!DOCTYPE svg PUBLIC "-//W3C//DTD SVG 1.1//EN" "http://www.w3.org/Graphics/SVG/1.1/DTD/svg11.dtd"><svg t="1589532749746" class="icon" viewBox="0 0 1024 1024" version="1.1" xmlns="http://www.w3.org/2000/svg" p-id="27643" xmlns:xlink="http://www.w3.org/1999/xlink" width="200" height="200"><defs><style type="text/css"></style></defs><path d="M728.06 950.47H295.48c-147.97 0-268.35-120.39-268.35-268.37v-62.39c0-147.97 120.37-268.37 268.35-268.37h432.58c147.97 0 268.37 120.39 268.37 268.37v62.39c0 147.98-120.39 268.37-268.37 268.37z m-432.58-517.5c-102.96 0-186.73 83.77-186.73 186.75v62.39c0 102.98 83.77 186.75 186.73 186.75h432.58c102.98 0 186.75-83.77 186.75-186.75v-62.39c0-102.98-83.77-186.75-186.75-186.75H295.48z" p-id="27644" fill="#333333"></path><path d="M280.72 765.9c-22.54 0-40.81-18.27-40.81-40.81V576.74c0-22.54 18.27-40.81 40.81-40.81s40.81 18.27 40.81 40.81v148.35c0 22.53-18.28 40.81-40.81 40.81z" p-id="27645" fill="#333333"></path><path d="M354.88 691.73H206.53c-22.54 0-40.81-18.27-40.81-40.81s18.27-40.81 40.81-40.81h148.35c22.54 0 40.81 18.27 40.81 40.81s-18.27 40.81-40.81 40.81z" p-id="27646" fill="#333333"></path><path d="M765.78 585.62m-51.23 0a51.23 51.23 0 1 0 102.46 0 51.23 51.23 0 1 0-102.46 0Z" p-id="27647" fill="#333333"></path><path d="M615.13 716.21m-51.23 0a51.23 51.23 0 1 0 102.46 0 51.23 51.23 0 1 0-102.46 0Z" p-id="27648" fill="#333333"></path><path d="M433.33 404.65c-22.54 0-40.81-18.27-40.81-40.81V252.5c0-27.16 22.08-49.24 49.22-49.24H549.4v-90.92c0-22.54 18.27-40.81 40.81-40.81s40.81 18.27 40.81 40.81v124.6c0 26.44-21.5 47.94-47.94 47.94H474.14v78.97c0 22.53-18.27 40.8-40.81 40.8z" p-id="27649" fill="#333333"></path></svg>