<?xml version="1.0" standalone="no"?><!DOCTYPE svg PUBLIC "-//W3C//DTD SVG 1.1//EN" "http://www.w3.org/Graphics/SVG/1.1/DTD/svg11.dtd"><svg t="1589622316483" class="icon" viewBox="0 0 1024 1024" version="1.1" xmlns="http://www.w3.org/2000/svg" p-id="5142" xmlns:xlink="http://www.w3.org/1999/xlink" width="200" height="200"><defs><style type="text/css"></style></defs><path d="M425.1648 505.856c75.776-57.9584 150.9376-115.5072 226.5088-173.4656 31.5392 21.2992 63.2832 42.8032 95.0272 64.3072 17.6128-18.6368 35.0208-37.2736 52.8384-56.32 1.4336 4.096 2.6624 7.7824 4.096 11.6736 8.3968 24.7808 14.7456 50.176 18.8416 76.1856 2.4576 16.1792 4.3008 32.5632 5.9392 48.9472 1.8432 18.6368 2.2528 37.2736 1.6384 55.9104-0.6144 15.7696-1.6384 31.5392-3.2768 47.3088-3.072 30.5152-9.216 60.6208-17.8176 90.112-12.0832 41.3696-29.2864 80.4864-52.6336 116.9408-22.1184 34.6112-48.7424 65.1264-81.7152 89.9072-28.672 21.7088-60.2112 37.4784-95.232 45.8752-22.1184 5.3248-44.6464 7.3728-67.3792 5.9392-49.3568-3.072-93.184-20.8896-132.5056-50.176-34.2016-25.3952-61.6448-56.7296-84.3776-92.3648-26.4192-41.3696-44.8512-86.2208-56.9344-133.7344-5.3248-20.6848-9.4208-41.3696-11.8784-62.464-1.8432-15.36-3.072-30.5152-3.8912-45.8752-0.6144-13.9264-0.8192-28.0576-0.4096-41.984 0.6144-15.7696 2.2528-31.5392 3.4816-47.5136 0-1.024 0.4096-2.2528 0.4096-3.2768-0.2048-2.8672 1.4336-3.8912 3.6864-4.7104 31.9488-12.6976 63.6928-25.3952 95.6416-38.2976 1.6384-0.6144 2.4576-0.4096 3.6864 0.8192 31.3344 31.5392 62.8736 62.8736 94.208 94.4128 0.8192 0.4096 1.4336 1.024 2.048 1.8432z" fill="" p-id="5143"></path><path d="M749.3632 331.9808c-7.9872-4.3008-16.1792-8.8064-24.1664-13.1072-23.7568-12.9024-47.7184-25.8048-71.4752-38.912-1.6384-0.8192-2.6624-0.8192-4.096 0.4096-73.3184 54.8864-146.432 109.9776-219.7504 164.864-0.6144 0.4096-1.2288 0.8192-1.8432 1.4336-6.3488-6.9632-12.4928-13.7216-18.6368-20.48-22.9376-25.1904-45.8752-50.176-68.8128-75.3664-1.4336-1.4336-2.4576-1.8432-4.3008-1.024-32.3584 13.9264-64.7168 27.648-97.28 41.3696-0.6144 0.2048-1.2288 0.4096-2.048 0.8192 1.2288-4.9152 2.4576-9.6256 3.6864-14.336 11.8784-43.2128 29.0816-84.1728 53.0432-122.0608 22.3232-35.6352 49.5616-67.1744 83.1488-92.7744 29.4912-22.3232 62.0544-38.5024 98.0992-46.6944 21.0944-4.7104 42.3936-6.5536 63.8976-5.3248 53.6576 3.072 100.352 23.552 142.1312 56.7296 32.5632 25.8048 58.7776 57.344 80.0768 92.7744 6.9632 11.4688 12.9024 23.7568 19.456 35.6352 0.6144 1.024 0.8192 1.6384-0.2048 2.6624-10.0352 10.8544-20.2752 21.7088-30.3104 32.5632 0 0.4096-0.2048 0.6144-0.6144 0.8192z" fill="" p-id="5144"></path></svg>