<?xml version="1.0" standalone="no"?><!DOCTYPE svg PUBLIC "-//W3C//DTD SVG 1.1//EN" "http://www.w3.org/Graphics/SVG/1.1/DTD/svg11.dtd"><svg t="1589538139970" class="icon" viewBox="0 0 1024 1024" version="1.1" xmlns="http://www.w3.org/2000/svg" p-id="96498" data-spm-anchor-id="a313x.7781069.0.i83" xmlns:xlink="http://www.w3.org/1999/xlink" width="200" height="200"><defs><style type="text/css"></style></defs><path d="M603.3 99.6H646v293.1h-42.7V99.6z m-225.3 0h42.7v293.1H378V99.6zM275.8 301.9l111.6 82.8-25.5 34.3-128.8-95.6V78.2h557.7v245.2L662.1 419l-25.4-34.3 111.6-82.8v-181H275.9v181z m131.5 489.3L427.6 676 341 593.9 460.5 577l52.8-104.3L566.1 577l119.5 16.9-86.5 82.2 20.3 115.2L513.3 737l-106 54.2z m106-102.2l49.2 25.2-9.4-53.3 39.1-37.1-54.1-7.7-24.8-49-24.8 49-54.1 7.7 39.1 37.1-9.4 53.3 49.2-25.2zM512 903.1c141.4 0 256-114.6 256-256s-114.6-256-256-256-256 114.6-256 256 114.6 256 256 256z m0 42.7c-164.9 0-298.7-133.7-298.7-298.7S347.1 348.4 512 348.4s298.7 133.7 298.7 298.7S676.9 945.8 512 945.8z" p-id="96499"></path></svg>