<?xml version="1.0" standalone="no"?><!DOCTYPE svg PUBLIC "-//W3C//DTD SVG 1.1//EN" "http://www.w3.org/Graphics/SVG/1.1/DTD/svg11.dtd"><svg t="1589597096568" class="icon" viewBox="0 0 1137 1024" version="1.1" xmlns="http://www.w3.org/2000/svg" p-id="99149" xmlns:xlink="http://www.w3.org/1999/xlink" width="222.0703125" height="200"><defs><style type="text/css"></style></defs><path d="M873.324089 0C697.912889 0 561.0496 116.030578 541.604978 286.640356c-0.785067 16.258844-0.864711 35.316622-1.024 81.112177-53.828267-76.037689-149.902222-150.402844-282.055111-154.305422H0l6.439822 114.756267c19.990756 169.073778 188.996267 291.362133 334.427022 293.091555h105.858845c1.183289 0.136533 2.332444 0.364089 3.561244 0.364089 7.554844 0 14.802489-3.015111 20.150045-8.374044s8.351289-12.629333 8.351289-20.206934a28.489956 28.489956 0 0 0-27.534223-28.501333v-0.4096H336.827733C235.064889 565.361778 63.226311 447.488 56.957156 277.037511h210.033777c138.4448 18.6368 266.979556 123.892622 266.979556 280.6784V985.998222c0 0.159289-0.068267 0.364089-0.068267 0.557511 0 0.2048 0.056889 0.386844 0.068267 0.568889v2.218667h0.227555c1.4336 16.2816 14.904889 29.0816 31.505067 29.0816 16.5888 0 30.071467-12.8 31.505067-29.0816h0.170666V987.591111c0.011378-0.352711 0.113778-0.671289 0.113778-1.035378 0-0.341333-0.091022-0.659911-0.1024-0.978489l1.024-660.662044C596.798578 158.128356 749.249422 59.073422 871.287467 57.1392h203.207111c0 155.215644-171.360711 281.873067-272.896 280.689778H680.971378v0.147911c-0.455111-0.022756-0.887467-0.136533-1.342578-0.136533-7.554844 0-14.813867 3.015111-20.150044 8.374044s-8.351289 12.629333-8.339912 20.218311c0 7.5776 2.992356 14.848 8.339912 20.218311 5.347556 5.358933 12.5952 8.374044 20.150044 8.362667 0.466489 0 0.898844-0.113778 1.342578-0.136533v0.068266h110.148266c174.535111 0 313.787733-130.434844 333.778489-299.554133L1137.777778 0H873.324089z" fill="#FFFFFF" p-id="99150"></path><path d="M125.155556 278.641778h210.056533s230.388622 39.139556 265.341155 265.079466c-316.666311 84.195556-405.868089-92.421689-440.137955-144.645688C134.382933 359.389867 125.155556 278.641778 125.155556 278.641778z m541.479822 65.365333S644.141511 80.975644 935.560533 58.299733c40.8576-3.185778 175.024356 0 175.024356 0s32.210489 231.7312-240.708267 281.270045c-260.699022 47.331556-203.241244 4.437333-203.241244 4.437333z" fill="#E0E0E0" p-id="99151"></path><path d="M873.324089 0C697.912889 0 561.0496 116.030578 541.604978 286.640356c-0.785067 16.258844-0.864711 35.316622-1.024 81.112177-53.828267-76.037689-149.902222-150.402844-282.055111-154.305422H0l6.439822 114.756267c19.990756 169.073778 188.996267 291.362133 334.427022 293.091555h105.858845c1.183289 0.136533 2.332444 0.364089 3.561244 0.364089 7.554844 0 14.802489-3.015111 20.150045-8.374044s8.351289-12.629333 8.351289-20.206934a28.489956 28.489956 0 0 0-27.534223-28.501333v-0.4096H336.827733C235.064889 565.361778 63.226311 447.488 56.957156 277.037511h210.033777c138.4448 18.6368 266.979556 123.892622 266.979556 280.6784V985.998222c0 0.159289-0.068267 0.364089-0.068267 0.557511 0 0.2048 0.056889 0.386844 0.068267 0.568889v2.218667h0.227555c1.4336 16.2816 14.904889 29.0816 31.505067 29.0816 16.5888 0 30.071467-12.8 31.505067-29.0816h0.170666V987.591111c0.011378-0.352711 0.113778-0.671289 0.113778-1.035378 0-0.341333-0.091022-0.659911-0.1024-0.978489l1.024-660.662044C596.798578 158.128356 749.249422 59.073422 871.287467 57.1392h203.207111c0 155.215644-171.360711 281.873067-272.896 280.689778H680.971378v0.147911c-0.455111-0.022756-0.887467-0.136533-1.342578-0.136533-7.554844 0-14.813867 3.015111-20.150044 8.374044s-8.351289 12.629333-8.339912 20.218311c0 7.5776 2.992356 14.848 8.339912 20.218311 5.347556 5.358933 12.5952 8.374044 20.150044 8.362667 0.466489 0 0.898844-0.113778 1.342578-0.136533v0.068266h110.148266c174.535111 0 313.787733-130.434844 333.778489-299.554133L1137.777778 0H873.324089z" fill="#333333" p-id="99152"></path></svg>