<?xml version="1.0" standalone="no"?><!DOCTYPE svg PUBLIC "-//W3C//DTD SVG 1.1//EN" "http://www.w3.org/Graphics/SVG/1.1/DTD/svg11.dtd"><svg t="1589537221482" class="icon" viewBox="0 0 1024 1024" version="1.1" xmlns="http://www.w3.org/2000/svg" p-id="64255" xmlns:xlink="http://www.w3.org/1999/xlink" width="16" height="16"><defs><style type="text/css"></style></defs><path d="M831.488 90.112H192.512a102.4 102.4 0 0 0-102.4 102.4v638.976a102.4 102.4 0 0 0 102.4 102.4h638.976a102.4 102.4 0 0 0 102.4-102.4V192.512a102.4 102.4 0 0 0-102.4-102.4zM870.4 819.2v6.144a51.2 51.2 0 0 1-51.2 45.056H198.656A51.2 51.2 0 0 1 153.6 819.2V198.656A51.2 51.2 0 0 1 204.8 153.6h614.4a51.2 51.2 0 0 1 51.2 51.2z" p-id="64256"></path><path d="M347.136 325.632a40.448 40.448 0 0 0-39.936 40.448v307.2a40.448 40.448 0 0 0 80.896 0v-307.2a40.96 40.96 0 0 0-40.96-40.448zM705.536 349.696A102.4 102.4 0 0 0 665.6 327.68a274.944 274.944 0 0 0-67.584-6.656H498.688a51.2 51.2 0 0 0-37.888 11.264 48.128 48.128 0 0 0-11.776 36.352v293.888a51.2 51.2 0 0 0 10.752 34.304 37.888 37.888 0 0 0 55.808 0 51.2 51.2 0 0 0 10.752-34.816v-108.032h70.656a163.84 163.84 0 0 0 107.008-30.208 107.52 107.52 0 0 0 35.84-88.064 133.632 133.632 0 0 0-8.704-51.2 91.648 91.648 0 0 0-25.6-34.816z m-51.2 121.344a51.2 51.2 0 0 1-27.648 18.944 164.864 164.864 0 0 1-45.568 5.632h-51.2V379.392h51.2a97.792 97.792 0 0 1 68.096 16.896 55.296 55.296 0 0 1 14.848 40.96 53.76 53.76 0 0 1-11.776 33.792z" p-id="64257"></path></svg>