<?xml version="1.0" standalone="no"?><!DOCTYPE svg PUBLIC "-//W3C//DTD SVG 1.1//EN" "http://www.w3.org/Graphics/SVG/1.1/DTD/svg11.dtd"><svg t="1589622720020" class="icon" viewBox="0 0 1024 1024" version="1.1" xmlns="http://www.w3.org/2000/svg" p-id="11789" xmlns:xlink="http://www.w3.org/1999/xlink" width="200" height="200"><defs><style type="text/css"></style></defs><path d="M904.3 119.7H119.7c-30.8 0-56 25.2-56 56v672.5c0 30.8 25.2 56 56 56h784.6c30.8 0 56-25.2 56-56V175.7c0.1-30.8-25.2-56-56-56z m0 728.6H119.7V175.7h784.6v672.6z" p-id="11790" fill="#333333"></path><path d="M203.8 792.2c15.5 0 28-12.5 28-28v-56c0-15.5-12.5-28-28-28s-28 12.5-28 28v56c-0.1 15.5 12.5 28 28 28zM315.8 792.2c15.5 0 28-12.5 28-28V596.1c0-15.5-12.5-28-28-28s-28 12.5-28 28v168.1c0 15.5 12.6 28 28 28zM427.9 792.2c15.5 0 28-12.5 28-28v-56c0-15.5-12.5-28-28-28s-28 12.5-28 28v56c0 15.5 12.5 28 28 28zM638.1 680.1c131.5 0 238.2-106.6 238.2-238.2 0-131.5-106.6-238.2-238.2-238.2S399.9 310.4 399.9 441.9c0 131.6 106.7 238.2 238.2 238.2z m0-420.3c100.4 0 182.1 81.7 182.1 182.1S738.5 624 638.1 624 456 542.4 456 441.9s81.7-182.1 182.1-182.1z" p-id="11791" fill="#333333"></path><path d="M596.1 512h112.1c15.5 0 28-12.5 28-28s-12.5-28-28-28h-84.1V343.9c0-15.5-12.5-28-28-28s-28 12.5-28 28V484c-0.1 15.5 12.5 28 28 28z" p-id="11792" fill="#333333"></path></svg>