<?xml version="1.0" standalone="no"?><!DOCTYPE svg PUBLIC "-//W3C//DTD SVG 1.1//EN" "http://www.w3.org/Graphics/SVG/1.1/DTD/svg11.dtd"><svg t="1589623423420" class="icon" viewBox="0 0 1024 1024" version="1.1" xmlns="http://www.w3.org/2000/svg" p-id="46151" data-spm-anchor-id="a313x.7781069.0.i23" xmlns:xlink="http://www.w3.org/1999/xlink" width="200" height="200"><defs><style type="text/css"></style></defs><path d="M592.6 515.9H543V247.2c0-6.7-5.4-12.2-12.2-12.2h-22.6c-2.2 0-4.3 0.6-6.1 1.7-16 9.3-34.5 16-58.9 21.2-4.8 1-8.3 5.2-8.3 10.2v13.1c0 5.7 4.6 10.4 10.4 10.4h47.4V516h-57.1c-11.5 0-20.8 9.3-20.8 20.8s9.3 20.8 20.8 20.8h157.1c11.5 0 20.8-9.3 20.8-20.8-0.1-11.6-9.5-20.9-20.9-20.9zM712 951.6H311.6c-13.2 0-24-10.8-24-24s10.8-24 24-24H712c13.2 0 24 10.8 24 24s-10.8 24-24 24z" p-id="46152"></path><path d="M946.3 267.3c-10.5-10.5-24.9-16.4-39.8-16.4H793.8V134.1c-0.1-20.7-16.9-37.4-37.6-37.4H267.8c-6.4 0-12.9 1.5-18.5 4.6-12.1 6.8-19.4 19.5-19.4 32.8V251H117c-14.9 0-29.2 5.8-39.8 16.4-10.5 10.4-16.6 24.7-16.6 39.6v18.7C61 429.9 133 520.2 234.5 543.6 257 666.8 358.3 760.1 482.7 772.7h4.5V904h48.6V772.7h6v0.1c124-13 224.7-106.2 247.2-229 101.5-23.5 173.5-113.7 173.8-218V307c0.1-14.9-5.9-29.1-16.5-39.7zM226.3 490c-72.1-25.1-120.5-93-120.9-169.3 0.1-11.1 9-20 20.1-20h100.7V490h0.1z m519.4 4.9c0 126.6-104.7 229.2-233.9 229.2S277.9 621.5 277.9 494.9V167.2c0.1-10.5 8.8-19 19.5-19h428.9c10.7 0 19.4 8.5 19.5 19-0.1 0-0.1 327.7-0.1 327.7z m51.5-4.8l-0.1-189.4h100.7c5.4 0 10.4 2.2 14.2 5.9s5.9 8.9 5.9 14.2c-0.1 76.3-48.6 144.2-120.7 169.3z" p-id="46153"></path></svg>