<?xml version="1.0" standalone="no"?><!DOCTYPE svg PUBLIC "-//W3C//DTD SVG 1.1//EN" "http://www.w3.org/Graphics/SVG/1.1/DTD/svg11.dtd"><svg t="1589532660022" class="icon" viewBox="0 0 1024 1024" version="1.1" xmlns="http://www.w3.org/2000/svg" p-id="25531" xmlns:xlink="http://www.w3.org/1999/xlink" width="200" height="200"><defs><style type="text/css"></style></defs><path d="M600.74666667 880.64H147.91111147c-81.92 0-147.91111147-65.99111147-147.91111147-147.91111147V352.71111147c0-81.92 65.99111147-147.91111147 147.91111147-147.91111147h450.56c81.92 0 147.91111147 65.99111147 147.9111104 147.91111147v380.01777706c2.2755552 81.92-63.7155552 147.91111147-145.6355552 147.91111147zM147.91111147 263.9644448c-50.06222187 0-88.74666667 40.96-88.74666667 88.74666667v380.01777706c0 50.06222187 40.96 88.74666667 88.74666667 88.74666667h450.56c50.06222187 0 88.74666667-40.96 88.74666666-88.74666667V352.71111147c0-50.06222187-40.96-88.74666667-88.74666666-88.74666667H147.91111147z" fill="#333333" p-id="25532"></path><path d="M382.29333333 541.58222187m-52.33777813 0a52.33777813 52.33777813 0 1 0 104.67555627 0 52.33777813 52.33777813 0 1 0-104.67555627 0Z" fill="#333333" p-id="25533"></path><path d="M971.66222187 796.4444448c-9.10222187 0-18.2044448-2.2755552-25.0311104-9.10222293l-186.59555627-136.53333334c-34.13333333-25.03111147-54.61333333-65.99111147-54.61333333-109.22666666s20.48-84.1955552 54.61333333-109.22666667l186.59555627-136.53333333c13.65333333-9.10222187 29.58222187-11.37777813 43.2355552-4.5511104 13.65333333 6.82666667 22.7555552 20.48 22.7555552 36.40888853v425.52888853c0 15.92888853-9.10222187 29.58222187-22.7555552 36.4088896-6.82666667 6.82666667-11.37777813 6.82666667-18.2044448 6.82666667z m-18.20444374-432.35555627l-159.2888896 118.3288896c-20.48 13.65333333-31.85777813 36.40888853-31.85777706 61.44s11.37777813 47.78666667 31.85777706 61.44l159.2888896 118.32888854V364.08888853z" fill="#333333" p-id="25534"></path></svg>