<?xml version="1.0" standalone="no"?><!DOCTYPE svg PUBLIC "-//W3C//DTD SVG 1.1//EN" "http://www.w3.org/Graphics/SVG/1.1/DTD/svg11.dtd"><svg t="1589622613875" class="icon" viewBox="0 0 1024 1024" version="1.1" xmlns="http://www.w3.org/2000/svg" p-id="8245" xmlns:xlink="http://www.w3.org/1999/xlink" width="200" height="200"><defs><style type="text/css"></style></defs><path d="M512 952.888889c-2.844444 0-8.533333 0-11.377778-2.844445-5.688889-2.844444-142.222222-79.644444-264.533333-201.955555-8.533333-8.533333-8.533333-25.6 0-34.133333 8.533333-8.533333 25.6-8.533333 34.133333 0 96.711111 96.711111 204.8 164.977778 241.777778 184.888888 36.977778-19.911111 145.066667-88.177778 241.777778-184.888888 8.533333-8.533333 25.6-8.533333 34.133333 0 8.533333 8.533333 8.533333 25.6 0 34.133333-122.311111 122.311111-258.844444 199.111111-264.533333 201.955555-2.844444 2.844444-8.533333 2.844444-11.377778 2.844445zM108.088889 560.355556c-8.533333 0-17.066667-5.688889-22.755556-14.222223-25.6-56.888889-39.822222-113.777778-39.822222-170.666666 0-142.222222 116.622222-258.844444 258.844445-258.844445 48.355556 0 99.555556 17.066667 145.066666 51.2 25.6 19.911111 48.355556 42.666667 65.422222 68.266667 17.066667-25.6 39.822222-48.355556 65.422223-68.266667 45.511111-34.133333 96.711111-51.2 145.066666-51.2 142.222222 0 258.844444 116.622222 258.844445 258.844445 0 56.888889-14.222222 113.777778-39.822222 170.666666-5.688889 11.377778-19.911111 17.066667-34.133334 11.377778-11.377778-5.688889-17.066667-19.911111-11.377778-34.133333 22.755556-51.2 36.977778-102.4 36.977778-150.755556 0-116.622222-93.866667-210.488889-210.488889-210.488889-82.488889 0-164.977778 68.266667-184.888889 130.844445-8.533333 14.222222-17.066667 19.911111-28.444444 19.911111s-19.911111-5.688889-22.755556-17.066667c-19.911111-62.577778-102.4-130.844444-184.888888-130.844444-116.622222 0-210.488889 93.866667-210.488889 210.488889 0 48.355556 11.377778 99.555556 36.977777 150.755555 5.688889 11.377778 0 25.6-11.377777 34.133334-5.688889-2.844444-8.533333 0-11.377778 0z m455.111111 196.266666c-11.377778 0-28.444444-5.688889-36.977778-36.977778l-59.733333-213.333333-39.822222 162.133333c-8.533333 31.288889-25.6 36.977778-36.977778 39.822223-11.377778 0-28.444444 0-42.666667-31.288889l-28.444444-59.733334c0-2.844444-2.844444-5.688889-2.844445-5.688888-17.066667 25.6-59.733333 45.511111-93.866666 45.511111H167.822222c-14.222222 0-25.6-11.377778-25.6-25.6s11.377778-25.6 25.6-25.6h48.355556c19.911111 0 45.511111-14.222222 54.044444-25.6 11.377778-17.066667 25.6-25.6 42.666667-22.755556 17.066667 0 34.133333 14.222222 45.511111 34.133333l22.755556 42.666667 45.511111-187.733333c8.533333-31.288889 22.755556-36.977778 36.977777-39.822222 11.377778 0 28.444444 5.688889 36.977778 36.977777l62.577778 224.711111 56.888889-176.355555c11.377778-31.288889 28.444444-36.977778 39.822222-36.977778 11.377778 0 28.444444 2.844444 42.666667 34.133333l36.977778 85.333334c5.688889 17.066667 28.444444 31.288889 45.511111 31.288889h73.955555c14.222222 0 25.6 11.377778 25.6 25.6s-11.377778 25.6-25.6 25.6h-73.955555c-36.977778 0-76.8-25.6-91.022223-59.733334l-28.444444-68.266666-62.577778 190.577777c-14.222222 31.288889-31.288889 36.977778-39.822222 36.977778z" fill="#333333" p-id="8246"></path></svg>