<?xml version="1.0" standalone="no"?><!DOCTYPE svg PUBLIC "-//W3C//DTD SVG 1.1//EN" "http://www.w3.org/Graphics/SVG/1.1/DTD/svg11.dtd"><svg t="1589533016418" class="icon" viewBox="0 0 1024 1024" version="1.1" xmlns="http://www.w3.org/2000/svg" p-id="38777" xmlns:xlink="http://www.w3.org/1999/xlink" width="200" height="200"><defs><style type="text/css"></style></defs><path d="M588.834438 302.3379c0-18.26476-14.897514-33.162274-33.162274-33.162273H173.744806c-18.26476 0-33.162274 14.897514-33.162274 33.162273s14.897514 33.162274 33.162274 33.162274h381.927358a33.162274 33.162274 0 0 0 33.162274-33.162274zM930.150765 480.49584c-60.151263-60.151263-140.097853-93.313537-225.095312-93.313537-85.099497 0-165.046086 33.111255-225.095312 93.313537-60.151263 60.151263-93.313537 140.097853-93.313536 225.095311 0 85.099497 33.111255 165.046086 93.313536 225.095312 60.151263 60.151263 140.097853 93.313537 225.095312 93.313537 85.099497 0 165.046086-33.111255 225.095312-93.313537 60.151263-60.151263 93.313537-140.097853 93.313537-225.095312s-33.162274-164.944049-93.313537-225.095311z m28.570574 225.095311c0 139.944796-113.772109 253.818943-253.665886 253.818943s-253.665886-113.772109-253.665886-253.665886c0-139.944796 113.772109-253.818943 253.665886-253.818943s253.665886 113.823128 253.665886 253.665886z" p-id="38778" fill="#333333"></path><path d="M458.532211 971.450551c-6.071247-5.305964-12.397589-10.816003-19.591251-16.734194l-0.714265-0.561208H142.623287c-41.784465 0-75.81406-34.029595-75.81406-75.81406V212.39161c0-41.784465 33.978576-75.81406 75.81406-75.81406h105.558069v50.814807c0 18.26476 14.897514 33.162274 33.162274 33.162274s33.162274-14.897514 33.162274-33.162274v-50.814807h283.205819v50.814807c0 18.26476 14.897514 33.162274 33.162274 33.162274s33.162274-14.897514 33.162274-33.162274v-50.814807h105.558069c41.784465 0 75.81406 33.978576 75.81406 75.81406v160.097255l1.428529 0.714264c21.683025 10.662947 42.090578 23.723781 60.712471 38.876389l4.183548 3.367246v-203.055154c0-78.365004-63.773604-142.087589-142.087589-142.087589h-105.558069V33.162274c0-18.26476-14.897514-33.162274-33.162274-33.162274s-33.162274 14.897514-33.162274 33.162274v37.090728H314.505904V33.162274c0-18.26476-14.897514-33.162274-33.162274-33.162274s-33.162274 14.897514-33.162274 33.162274v37.090728H142.623287C64.309302 70.253002 0.535698 134.026606 0.535698 212.39161v665.949479c0 78.365004 63.773604 142.087589 142.087589 142.087589h406.51846l-17.80559-4.99985c-33.162274-9.336456-49.79443-23.876837-72.803946-43.978277z" p-id="38779" fill="#333333"></path><path d="M324.352548 652.990683H173.744806c-18.26476 0-33.162274 14.897514-33.162274 33.162274s14.897514 33.162274 33.162274 33.162274h149.128195l-0.153057-2.704001c-0.612227-9.285437-0.867321-16.479099-0.867321-23.213592 0-12.550645 0.714264-25.203328 2.193812-37.549897l0.306113-2.857058zM819.745902 718.600967h-101.527577v-101.476559c0-18.26476-14.897514-33.162274-33.162274-33.162274s-33.162274 14.897514-33.162274 33.162274v134.638832c0 18.26476 14.897514 33.162274 33.162274 33.162274h134.638832c18.26476 0 33.162274-14.897514 33.162274-33.162274s-14.846495-33.162274-33.111255-33.162273zM368.58592 526.106721c13.366947-21.836082 29.386877-42.141597 47.600618-60.355338l4.693737-4.744757H173.744806c-18.26476 0-33.162274 14.897514-33.162274 33.162274s14.897514 33.162274 33.162274 33.162274H367.871656l0.714264-1.224453z" p-id="38780" fill="#333333"></path></svg>