<?xml version="1.0" standalone="no"?><!DOCTYPE svg PUBLIC "-//W3C//DTD SVG 1.1//EN" "http://www.w3.org/Graphics/SVG/1.1/DTD/svg11.dtd"><svg t="1589532579759" class="icon" viewBox="0 0 1024 1024" version="1.1" xmlns="http://www.w3.org/2000/svg" p-id="23341" xmlns:xlink="http://www.w3.org/1999/xlink" width="200" height="200"><defs><style type="text/css"></style></defs><path d="M298.27543 255.451036a41.721229 41.721229 0 0 0 42.453181-42.45318V42.453181a42.453181 42.453181 0 0 0-84.906362 0v170.544675a42.453181 42.453181 0 0 0 42.453181 42.45318z m215.19371 0a42.453181 42.453181 0 0 0 42.45318-42.45318V42.453181a42.453181 42.453181 0 0 0-84.906361 0v170.544675a42.453181 42.453181 0 0 0 42.453181 42.45318zM383.913743 81.978556h42.453181v84.906362h-42.453181z m212.265904 0h42.453181v84.906362h-42.453181z m425.26376 813.197999V204.94639a127.359543 127.359543 0 0 0-128.091494-128.091494H806.249697v84.906362h84.906362a43.917084 43.917084 0 0 1 43.185132 43.185132v690.230165a42.453181 42.453181 0 0 1-43.185132 42.453181H128.462706a42.453181 42.453181 0 0 1-42.45318-42.453181V204.94639a43.185132 43.185132 0 0 1 42.45318-43.185132H213.369068V76.854896H128.462706A127.359543 127.359543 0 0 0 1.103164 204.94639v690.230165a127.359543 127.359543 0 0 0 127.359542 128.823445h764.889207a127.359543 127.359543 0 0 0 127.359543-120.77198v-6.587563zM723.53919 255.451036a42.453181 42.453181 0 0 0 42.45318-42.45318V42.453181a42.453181 42.453181 0 0 0-84.906361 0v170.544675a42.453181 42.453181 0 0 0 42.453181 42.45318zM255.822249 425.995711h512.365976a42.453181 42.453181 0 1 0 0-84.906361h-512.365976a42.453181 42.453181 0 0 0 0 84.906361z m512.365976 125.163689h-512.365976a42.453181 42.453181 0 1 0 0 84.906361h512.365976a42.453181 42.453181 0 1 0 0-84.906361z m0 219.585418h-512.365976a42.453181 42.453181 0 1 0 0 84.906361h512.365976a42.453181 42.453181 0 0 0 40.989278-42.45318 43.185132 43.185132 0 0 0-40.989278-42.453181z m0 0" p-id="23342" fill="#333333"></path></svg>