<?xml version="1.0" standalone="no"?><!DOCTYPE svg PUBLIC "-//W3C//DTD SVG 1.1//EN" "http://www.w3.org/Graphics/SVG/1.1/DTD/svg11.dtd"><svg t="1589537467086" class="icon" viewBox="0 0 1024 1024" version="1.1" xmlns="http://www.w3.org/2000/svg" p-id="71928" xmlns:xlink="http://www.w3.org/1999/xlink" width="200" height="200"><defs><style type="text/css"></style></defs><path d="M765.087367 506.176401c-142.903179 0-258.911799 115.805278-258.911799 258.910133 0 142.904846 115.806944 258.911799 258.911799 258.911799s258.911799-115.805278 258.9118-258.911799c0-142.903179-116.006953-258.910133-258.9118-258.910133z m-37.331701 396.79475h-60.211077V681.997747h-20.072582v-20.072581h80.283659v116.211963l99.352861-116.211963 100.349573 0.201676-199.702434 240.844309z m-272.754097-365.883341c51.375675 0 99.549537-14.048974 140.489736-38.33508l7.832024-4.816887c75.061754-47.768844 124.634013-130.859297 124.634013-225.395271C727.957342 120.220479 605.725105 0 455.001569 0c-150.728536 0-272.960773 120.220479-272.960773 268.540572 0 148.321759 122.030561 268.547238 272.960773 268.547238z m0 0" fill="#333333" p-id="71929"></path><path d="M474.267447 887.920465c-16.459083-38.935108-24.891134-80.283659-24.891134-122.832264 0-42.546939 8.432051-83.897157 24.891134-122.830598 9.830448-23.484404 22.481025-45.360401 37.533377-65.627991h-159.160586C157.958032 576.627945 0.000833 731.973358 0.000833 923.440417v22.279349c0 78.278567 157.957199 78.278567 352.639405 78.278567h231.612221c-15.052353-10.638818-29.304669-22.481025-42.345263-35.528286-29.102993-29.102993-51.785693-62.816196-67.639749-100.549582z m0 0" fill="#333333" p-id="71930"></path></svg>