<svg xmlns="http://www.w3.org/2000/svg" width="22.16" height="22.103" viewBox="0 0 22.16 22.103">
    <path d="M56.824 63.55a.831.831 0 0 1 .831-.831h6.554a.831.831 0 1 1 0 1.662h-6.554a.831.831 0 0 1-.831-.831zm.831 3.513h6.554a.831.831 0 1 0 0-1.662h-6.554a.831.831 0 1 0 0 1.662zm12.54 5.367v4.77a1.786 1.786 0 0 1-1.784 1.784H49.819a1.786 1.786 0 0 1-1.784-1.784v-4.77a1.783 1.783 0 0 1 .775-1.469v-9.5a2.741 2.741 0 0 1 2.738-2.738h1.059a2.732 2.732 0 0 1 2.577-1.847h11.5a2.742 2.742 0 0 1 2.738 2.739V70.96a1.789 1.789 0 0 1 .772 1.47zM54.106 59.618v11.026h1.929a.831.831 0 0 1 .827.747c.044.436.923 1.041 2.253 1.041s2.208-.606 2.253-1.04a.831.831 0 0 1 .827-.747h5.564V59.618a1.078 1.078 0 0 0-1.076-1.077h-11.5a1.079 1.079 0 0 0-1.076 1.077zm-3.636 1.846v9.18h1.972V60.389h-.9a1.077 1.077 0 0 0-1.072 1.075zM68.533 72.43a.122.122 0 0 0-.122-.123H62.8a4.067 4.067 0 0 1-3.681 1.787 4.074 4.074 0 0 1-3.683-1.787h-5.617a.122.122 0 0 0-.122.123v4.77a.12.12 0 0 0 .122.122h18.592a.122.122 0 0 0 .122-.122z" transform="translate(-48.035 -56.879)" style="fill:#fff"/>
</svg>
