<svg xmlns="http://www.w3.org/2000/svg" width="19.526" height="26.685" viewBox="0 0 19.526 26.685">
    <path d="M198.214 90.284h-5.239a.976.976 0 0 1-.913-1.324l5.206-13.66a.976.976 0 0 1 .912-.629h8.785a.976.976 0 0 1 .9 1.344l-3.031 7.441h5.707a.976.976 0 0 1 .734 1.62l-13.992 15.943a.976.976 0 0 1-1.677-.893l2.6-9.837zm.639-13.665-4.463 11.713h5.091a.976.976 0 0 1 .944 1.226L198.56 96.6l9.829-11.2h-5a.976.976 0 0 1-.9-1.344l3.031-7.441h-6.661z" transform="translate(-191.997 -74.667)" style="fill:#fff"/>
</svg>
