<?xml version="1.0" standalone="no"?><!DOCTYPE svg PUBLIC "-//W3C//DTD SVG 1.1//EN" "http://www.w3.org/Graphics/SVG/1.1/DTD/svg11.dtd"><svg t="1589272625394" class="icon" viewBox="0 0 1024 1024" version="1.1" xmlns="http://www.w3.org/2000/svg" p-id="12021" xmlns:xlink="http://www.w3.org/1999/xlink" width="200" height="200"><defs><style type="text/css"></style></defs><path d="M102.4 240.64m48.896 0l525.7728 0q48.896 0 48.896 48.896l0 0q0 48.896-48.896 48.896l-525.7728 0q-48.896 0-48.896-48.896l0 0q0-48.896 48.896-48.896Z" fill="#333333" p-id="12022"></path><path d="M102.4 463.104m48.896 0l721.408 0q48.896 0 48.896 48.896l0 0q0 48.896-48.896 48.896l-721.408 0q-48.896 0-48.896-48.896l0 0q0-48.896 48.896-48.896Z" fill="#333333" p-id="12023"></path><path d="M102.4 685.568m48.896 0l525.7728 0q48.896 0 48.896 48.896l0 0q0 48.896-48.896 48.896l-525.7728 0q-48.896 0-48.896-48.896l0 0q0-48.896 48.896-48.896Z" fill="#333333" p-id="12024"></path></svg>