<svg xmlns="http://www.w3.org/2000/svg" width="22.103" height="22.103" viewBox="0 0 22.103 22.103">
    <path data-name="路径 15" d="M93.1 336H82.456A2.459 2.459 0 0 0 80 338.456V349.1a2.459 2.459 0 0 0 2.456 2.456H93.1a2.459 2.459 0 0 0 2.456-2.456v-10.644A2.459 2.459 0 0 0 93.1 336zm.819 13.1a.819.819 0 0 1-.819.819H82.456a.819.819 0 0 1-.819-.819v-10.644a.82.82 0 0 1 .819-.819H93.1a.819.819 0 0 1 .819.819z" transform="translate(-80 -329.451)" style="fill:#fff"/>
    <path data-name="路径 16" d="M221.1 208h-10.644a.819.819 0 1 0 0 1.637H221.1a.819.819 0 0 1 .819.819V221.1a.819.819 0 1 0 1.637 0v-10.644A2.459 2.459 0 0 0 221.1 208zm-4.912 13.916h-7.368a.819.819 0 0 0 0 1.637h7.368a.819.819 0 1 0 0-1.637z" transform="translate(-204.726 -204.726)" style="fill:#fff"/>
    <path data-name="路径 17" d="M411.461 80h-10.642a.819.819 0 0 0 0 1.637h10.642a.819.819 0 0 1 .819.819V93.1a.819.819 0 0 0 1.637 0V82.456A2.459 2.459 0 0 0 411.461 80z" transform="translate(-391.814 -80)" style="fill:#fff"/>
</svg>
