<svg xmlns="http://www.w3.org/2000/svg" width="20.106" height="22.426" viewBox="0 0 20.106 22.426">
    <path data-name="路径 1" d="M97.547 74.827a7.594 7.594 0 0 0 3.789 6.45l4.717 3.232 4.717-3.271a7.586 7.586 0 0 0 3.789-6.411v-5.955a16.472 16.472 0 0 1-8.507-2.552 16.5 16.5 0 0 1-8.507 2.552zM96 67.2q6.7 0 10.053-3.2 3.341 3.2 10.053 3.2v7.671a9.489 9.489 0 0 1-4.478 8l-5.576 3.557-5.576-3.557a9.489 9.489 0 0 1-4.478-8z" style="fill:#94a5b1" transform="translate(-96 -64)"/>
    <path data-name="路径 2" d="M364.6 282.143a3.743 3.743 0 0 0-7.486 0 3.867 3.867 0 0 0 2.807 3.743v4.887h1.879v-.959h.936v-1.9h-.936V285.9a3.8 3.8 0 0 0 2.807-3.743zm-3.743 1.9a1.9 1.9 0 0 1-1.771-1.168 1.926 1.926 0 0 1 .394-2.1 1.887 1.887 0 0 1 2.072-.433 1.926 1.926 0 0 1 1.175 1.779 1.9 1.9 0 0 1-1.867 1.924z" transform="translate(-350.807 -273.219)" style="fill:#94a5b1"/>
</svg>
