<svg xmlns="http://www.w3.org/2000/svg" width="19.573" height="22.73" viewBox="0 0 19.573 22.73">
    <path data-name="路径 7" d="M135.544 70.182h11.576a4 4 0 0 1 4 4v14.731a4 4 0 0 1-4 4h-11.576a4 4 0 0 1-4-4V74.181a4 4 0 0 1 4-4zm0 1.684a2.315 2.315 0 0 0-2.315 2.315v14.732a2.315 2.315 0 0 0 2.315 2.315h11.576a2.315 2.315 0 0 0 2.315-2.315V74.181a2.315 2.315 0 0 0-2.315-2.315z" style="fill:#fff" transform="translate(-131.545 -70.182)"/>
    <path data-name="路径 8" d="M296.024 337.774h5.262a.842.842 0 1 0 0-1.684h-5.262a.842.842 0 0 0 0 1.684zm0 4.209h9.471a.842.842 0 1 0 0-1.684h-9.471a.842.842 0 0 0 0 1.684zm0 4.209h9.471a.842.842 0 1 0 0-1.684h-9.471a.842.842 0 1 0 0 1.684z" transform="translate(-290.972 -329.251)" style="fill:#fff"/>
</svg>
