<svg xmlns="http://www.w3.org/2000/svg" width="20.678" height="22.848" viewBox="0 0 20.678 22.848">
    <path data-name="200用户_用户" d="M97.389 63.071a.934.934 0 1 1-1.869 0l-.008-.087a1.053 1.053 0 0 1 .01-.109 8.414 8.414 0 0 0-8.381-7.162c-.034 0-.067.005-.1.005s-.067 0-.1-.005a8.417 8.417 0 0 0-8.357 7.024.943.943 0 0 1 .036.247l.009.088a.949.949 0 1 1-1.9 0v-.008h-.018c0-.028.008-.054.011-.081a.955.955 0 0 1 .03-.225A10.1 10.1 0 0 1 83.22 54.6a7.268 7.268 0 0 1-3.32-6.154 7.138 7.138 0 1 1 14.274 0 7.267 7.267 0 0 1-3.311 6.154 10.1 10.1 0 0 1 6.46 8.071.932.932 0 0 1 .058.313l.008.087zm-4.852-14.623a5.5 5.5 0 1 0-5.5 5.5 5.5 5.5 0 0 0 5.5-5.5z" transform="translate(-76.711 -41.173)" style="fill:#94a5b1"/>
</svg>
