<svg xmlns="http://www.w3.org/2000/svg" width="22.081" height="22.103" viewBox="0 0 22.081 22.103">
    <path data-name="礼物 活动" d="M124.8 110.934h-.775a3.164 3.164 0 0 0 .511-1.892 2.331 2.331 0 0 0-1.137-1.762 3.262 3.262 0 0 0-2.639-.329 9.754 9.754 0 0 0-4.87 3.548 9.756 9.756 0 0 0-4.87-3.548 3.255 3.255 0 0 0-2.64.329 2.332 2.332 0 0 0-1.136 1.762 3.152 3.152 0 0 0 .511 1.892h-.775a2.133 2.133 0 0 0-2.129 2.131v2.745a2.13 2.13 0 0 0 1.5 2.027 2.107 2.107 0 0 0-.128.719v8.235a2.134 2.134 0 0 0 2.131 2.131h15.076a2.133 2.133 0 0 0 2.129-2.131v-8.235a2.1 2.1 0 0 0-.127-.719 2.132 2.132 0 0 0 1.5-2.026v-2.744a2.133 2.133 0 0 0-2.129-2.132M123.43 127.4h-6.783v-9.462h6.783a.614.614 0 0 1 .612.614v8.235a.613.613 0 0 1-.612.613m-5.947-16.469a7.994 7.994 0 0 1 3.644-2.51 1.786 1.786 0 0 1 1.44.125.824.824 0 0 1 .458.634 2.9 2.9 0 0 1-.9 1.752zm7.929 2.132v2.744a.612.612 0 0 1-.611.613h-8.153v-3.97h8.152a.613.613 0 0 1 .611.613m-10.281 4.876v9.461h-6.78a.613.613 0 0 1-.613-.613v-8.235a.614.614 0 0 1 .613-.614zm-6.376-8.76a.827.827 0 0 1 .457-.634 1.777 1.777 0 0 1 1.44-.125 8 8 0 0 1 3.639 2.51h-4.635a2.907 2.907 0 0 1-.9-1.752m-2.389 3.884a.614.614 0 0 1 .613-.613h8.152v3.97h-8.152a.613.613 0 0 1-.613-.613z" transform="translate(-104.848 -106.819)" style="fill:#fff"/>
</svg>
