<svg xmlns="http://www.w3.org/2000/svg" width="21.904" height="20.075" viewBox="0 0 21.904 20.075">
    <path data-name="文件夹、文件" d="M61 133.333a2.923 2.923 0 0 1 2.216 1.017h6.512a4.447 4.447 0 0 1 4.445 4.316v.558h-.006a.877.877 0 0 1 .006.1v9.633a4.447 4.447 0 0 1-4.447 4.447H56.714a4.447 4.447 0 0 1-4.447-4.447V137.78a4.447 4.447 0 0 1 4.447-4.447zm0 1.779h-4.286a2.668 2.668 0 0 0-2.668 2.668v11.181a2.668 2.668 0 0 0 2.668 2.668h13.01a2.668 2.668 0 0 0 2.668-2.668v-8.745h-6.718a2.922 2.922 0 0 1-2.712-1.834l-.044-.116-.844-2.392a1.144 1.144 0 0 0-1.074-.762zm.7 11.435a.889.889 0 0 1 .073 1.776H57.628a.889.889 0 0 1-.073-1.776h.073zm8.03-10.419h-5.68l.546 1.547a1.143 1.143 0 0 0 .993.76h6.78a2.669 2.669 0 0 0-2.535-2.307h-.11z" transform="translate(-52.267 -133.333)" style="fill:#fff"/>
</svg>
