<svg xmlns="http://www.w3.org/2000/svg" width="19.916" height="22.426" viewBox="0 0 19.916 22.426">
    <path data-name="路径 3" d="M187.961 131.306a15.225 15.225 0 0 1-9.2-3.3.47.47 0 0 0-.3-.11.477.477 0 0 0-.3.107 15.174 15.174 0 0 1-9.2 3.3.463.463 0 0 0-.458.458v9.4c0 4.206 6.314 9.164 9.958 9.164 3.545 0 9.958-4.957 9.958-9.164v-9.4a.463.463 0 0 0-.458-.455zm-1.4 9.859c0 3.137-5.56 7.308-8.1 7.308-1.29 0-3.4-1.049-5.131-2.551-1.835-1.592-2.974-3.415-2.974-4.757v-8.088a17.124 17.124 0 0 0 8.1-2.96 17.124 17.124 0 0 0 8.1 2.96v8.088z" transform="translate(-168.5 -127.9)" style="fill:#94a5b1"/>
    <path data-name="路径 4" d="m385.516 335.2-2.916 6.056h4.575l-1.661 3.566 1.681.783 2.89-6.207h-4.531l1.635-3.398z" transform="translate(-376.393 -329.19)" style="fill:#94a5b1"/>
</svg>
