<svg xmlns="http://www.w3.org/2000/svg" width="19.573" height="24.793" viewBox="0 0 19.573 24.793">
    <path d="M223.12 106.667a5.491 5.491 0 0 1 5.383 4.568 3.557 3.557 0 0 1 3.451 3.19l.013.15.932 13.049a3.572 3.572 0 0 1-3.286 3.827l-.121.007H216.87a3.563 3.563 0 0 1-3.538-3.588v-.124l.007-.123.932-13.049a3.561 3.561 0 0 1 3.383-3.339h.08l.032-.165a5.488 5.488 0 0 1 5.354-4.403zm5.317 6.524H217.8a1.615 1.615 0 0 0-1.593 1.413l-.011.106-.934 13.1v.056a1.622 1.622 0 0 0 1.5 1.628h12.717a1.622 1.622 0 0 0 1.5-1.632v-.107l-.932-13.049a1.617 1.617 0 0 0-1.61-1.515zm-7.6 2.61a.979.979 0 1 1-.979.979.979.979 0 0 1 .978-.98zm4.567 0a.979.979 0 1 1-.979.979.979.979 0 0 1 .975-.98zm-2.284-7.177a3.547 3.547 0 0 0-3.4 2.61h6.809a3.548 3.548 0 0 0-3.409-2.61z" transform="translate(-213.333 -106.667)" style="fill:#94a5b1"/>
</svg>
