<svg xmlns="http://www.w3.org/2000/svg" width="23.512" height="21.045" viewBox="0 0 23.512 21.045">
    <g data-name="设置 (1)">
        <path data-name="路径 5" d="M90.155 119.467h-9.92a1.83 1.83 0 0 0-1.59.923l-4.96 8.692a1.83 1.83 0 0 0 0 1.814l4.96 8.693a1.83 1.83 0 0 0 1.59.923h9.92a1.83 1.83 0 0 0 1.588-.921l4.972-8.693a1.83 1.83 0 0 0 0-1.817l-4.972-8.693a1.83 1.83 0 0 0-1.588-.921zm-9.92 1.83h9.92l4.972 8.693-4.972 8.693h-9.92l-4.96-8.693 4.96-8.693z" transform="translate(-73.445 -119.467)" style="fill:#94a5b1"/>
        <path data-name="路径 6" d="M362.518 358.4a4.118 4.118 0 1 0 4.117 4.118 4.118 4.118 0 0 0-4.117-4.118zm0 1.83a2.288 2.288 0 1 1-2.288 2.287 2.288 2.288 0 0 1 2.288-2.287z" transform="translate(-350.762 -351.995)" style="fill:#94a5b1"/>
    </g>
</svg>
