<?xml version="1.0" standalone="no"?><!DOCTYPE svg PUBLIC "-//W3C//DTD SVG 1.1//EN" "http://www.w3.org/Graphics/SVG/1.1/DTD/svg11.dtd"><svg t="1589537338196" class="icon" viewBox="0 0 1024 1024" version="1.1" xmlns="http://www.w3.org/2000/svg" p-id="66671" xmlns:xlink="http://www.w3.org/1999/xlink" width="200" height="200"><defs><style type="text/css"></style></defs><path d="M461.529539 938.702444c-113.730074 0-227.460149-45.49203-318.444208-130.789585-181.968119-176.281615-193.341126-477.666312-17.059511-659.634431C211.323375 57.294368 330.739953 6.115835 450.156531 0.429331c125.103082-5.686504 238.833156 45.49203 329.817216 130.789586 90.984059 85.297556 142.162593 204.714134 142.162593 329.817215 5.686504 125.103082-39.805526 244.51966-125.103082 335.503719-90.984059 90.984059-210.400638 142.162593-335.503719 142.162593zM461.529539 51.607864h-11.373008c-108.043571 5.686504-210.400638 51.178533-284.325185 130.789586-153.5356 164.908608-147.849097 432.174282 11.373007 585.709883 164.908608 159.222104 426.487779 153.5356 580.023379-17.059511 73.924548-79.611052 113.730074-187.654623 113.730074-295.698194 0-113.730074-45.49203-216.087141-125.103081-290.011689-79.611052-68.238045-176.281615-113.730074-284.325186-113.730075z m0 0" p-id="66672"></path><path d="M939.195851 1024c-22.746015 0-39.805526-5.686504-56.865037-22.746015l-181.968119-170.595111 22.746015-17.059512c17.059511-11.373007 28.432519-22.746015 39.805526-39.805526 11.373007-11.373007 22.746015-28.432519 34.119022-45.492029l17.059511-22.746015 181.968119 170.595111c17.059511 17.059511 28.432519 39.805526 28.432519 62.551541 0 22.746015-5.686504 45.49203-22.746015 62.551541-17.059511 11.373007-39.805526 22.746015-62.551541 22.746015z m-159.222104-193.341126l136.476089 130.789585c11.373007 11.373007 34.119022 11.373007 45.49203 0 11.373007-11.373007 11.373007-34.119022 0-51.178533l-136.476089-130.789586c-5.686504 11.373007-17.059511 17.059511-22.746015 28.432519-5.686504 5.686504-17.059511 11.373007-22.746015 22.746015zM228.382886 569.079703c-11.373007-28.432519-17.059511-56.865037-17.059511-90.98406 0-68.238045 22.746015-130.789585 68.238045-181.968119l5.686504-5.686503c45.49203-45.49203 108.043571-73.924548 170.595111-73.924549 34.119022 0 68.238045 5.686504 102.357067 17.059511l39.805526-39.805526C552.513598 171.024443 507.021569 159.651435 455.843035 165.337939c-79.611052 0-153.5356 34.119022-210.400637 96.670563-56.865037 56.865037-85.297556 136.476089-85.297556 216.087141 0 45.49203 11.373007 90.984059 34.119022 130.789586L228.382886 569.079703z m466.293305-199.02763c11.373007 28.432519 17.059511 56.865037 17.059511 90.984059 5.686504 142.162593-108.043571 255.892667-244.519659 261.579171-34.119022 0-68.238045-5.686504-102.357067-17.059511l-39.805526 39.805526c45.49203 22.746015 90.984059 34.119022 142.162593 34.119022 79.611052 0 153.5356-34.119022 204.714133-90.984059 56.865037-56.865037 90.984059-136.476089 90.98406-221.773645 0-45.49203-11.373007-90.984059-34.119023-130.789586l-34.119022 34.119023z m0 0" p-id="66673"></path><path d="M654.870665 335.93305c-28.432519 0-56.865037-22.746015-56.865037-56.865037 0-28.432519 22.746015-56.865037 56.865037-56.865037 28.432519 0 56.865037 22.746015 56.865037 56.865037s-28.432519 56.865037-56.865037 56.865037z m0-79.611052c-11.373007 0-22.746015 11.373007-22.746015 22.746015s11.373007 22.746015 22.746015 22.746015 22.746015-11.373007 22.746015-22.746015-11.373007-22.746015-22.746015-22.746015z m0 0M444.470028 398.484591c-28.432519 0-56.865037-22.746015-56.865038-56.865037 0-28.432519 22.746015-56.865037 56.865038-56.865037 28.432519 0 56.865037 22.746015 56.865037 56.865037 0 28.432519-22.746015 56.865037-56.865037 56.865037z m0-85.297556c-11.373007 0-22.746015 11.373007-22.746015 28.432519 0 11.373007 11.373007 22.746015 22.746015 22.746015s22.746015-11.373007 22.746015-22.746015c5.686504-17.059511-5.686504-28.432519-22.746015-28.432519z m0 0M273.874916 716.928799c-28.432519 0-56.865037-22.746015-56.865037-56.865037 0-28.432519 22.746015-56.865037 56.865037-56.865037 28.432519 0 56.865037 22.746015 56.865037 56.865037-5.686504 28.432519-28.432519 56.865037-56.865037 56.865037z m0-79.611052c-11.373007 0-22.746015 11.373007-22.746015 22.746015s5.686504 22.746015 22.746015 22.746015c11.373007 0 22.746015-11.373007 22.746015-22.746015s-11.373007-22.746015-22.746015-22.746015z m0 0M484.275554 631.631244c-28.432519 0-56.865037-22.746015-56.865037-56.865038 0-28.432519 22.746015-56.865037 56.865037-56.865037 28.432519 0 56.865037 22.746015 56.865037 56.865037s-28.432519 56.865037-56.865037 56.865038z m0-79.611052c-11.373007 0-22.746015 11.373007-22.746015 22.746014s11.373007 22.746015 22.746015 22.746015 22.746015-11.373007 22.746015-22.746015-11.373007-22.746015-22.746015-22.746014z m0 0" p-id="66674"></path><path d="M478.13413 318.304889l141.366482-43.217428 6.653209 21.722444-141.366482 43.217428zM310.211675 637.829533l136.646684-56.466982 8.700351 21.040063-136.646684 56.410117zM489.962057 540.647184l-28.432518-164.908608-22.746015 5.686504 28.432519 164.908608z" p-id="66675"></path></svg>