<?xml version="1.0" standalone="no"?><!DOCTYPE svg PUBLIC "-//W3C//DTD SVG 1.1//EN" "http://www.w3.org/Graphics/SVG/1.1/DTD/svg11.dtd"><svg t="1589536963879" class="icon" viewBox="0 0 1024 1024" version="1.1" xmlns="http://www.w3.org/2000/svg" p-id="56501" xmlns:xlink="http://www.w3.org/1999/xlink" width="16" height="16"><defs><style type="text/css"></style></defs><path d="M1013.028571 538.331429l-117.028571 117.028571c-7.314286 7.314286-10.971429 16.822857-10.971429 26.331429v165.302857c0 21.211429-16.822857 38.034286-38.034285 38.034285H681.691429c-10.24 0-19.748571 3.657143-26.331429 10.971429l-117.028571 117.028571c-14.628571 14.628571-38.765714 14.628571-53.394286 0l-117.028572-117.028571c-7.314286-7.314286-16.822857-10.971429-26.331428-10.971429H177.005714c-21.211429 0-38.034286-16.822857-38.034285-38.034285V682.422857c0-10.24-3.657143-19.748571-10.971429-26.331428l-117.028571-117.028572C3.657143 531.748571 0 522.24 0 512c0-10.24 3.657143-19.748571 10.971429-26.331429l117.028571-117.028571c7.314286-7.314286 10.971429-16.822857 10.971429-26.331429V177.005714c0-21.211429 16.822857-38.034286 38.034285-38.034285h165.302857c10.24 0 19.748571-3.657143 26.331429-10.971429l117.028571-117.028571c14.628571-14.628571 38.765714-14.628571 53.394286 0l117.028572 117.028571c7.314286 7.314286 16.822857 10.971429 26.331428 10.971429h165.302857c20.48 0 37.302857 16.822857 38.034286 38.034285v165.302857c0 10.24 3.657143 19.748571 10.971429 26.331429l117.028571 117.028571c13.897143 14.628571 13.897143 38.034286-0.731429 52.662858zM746.057143 354.742857c-14.628571-14.628571-38.034286-14.628571-51.931429 0L459.337143 589.531429 328.411429 459.337143a36.864 36.864 0 0 0-51.931429 0.731428c-13.897143 13.897143-14.628571 37.302857-0.731429 51.931429l156.525715 156.525714c7.314286 7.314286 16.091429 10.971429 26.331428 10.971429s19.017143-3.657143 26.331429-10.971429l261.12-261.12c7.314286-7.314286 10.971429-16.091429 10.971428-26.331428 0-10.24-3.657143-19.748571-10.971428-26.331429z m0 0" fill="#333333" p-id="56502"></path></svg>