<?xml version="1.0" standalone="no"?><!DOCTYPE svg PUBLIC "-//W3C//DTD SVG 1.1//EN" "http://www.w3.org/Graphics/SVG/1.1/DTD/svg11.dtd"><svg t="1589537713274" class="icon" viewBox="0 0 1024 1024" version="1.1" xmlns="http://www.w3.org/2000/svg" p-id="86460" xmlns:xlink="http://www.w3.org/1999/xlink" width="200" height="200"><defs><style type="text/css"></style></defs><path d="M802.65 964.525H220.833c-17.584 0-32.064-14.48-32.064-32.064s14.48-32.065 32.064-32.065h581.819c17.583 0 32.064 14.48 32.064 32.065 0.517 17.583-13.963 32.064-32.064 32.064z m0-129.293H220.833c-88.953 0-161.357-67.75-161.357-151.014v-473.73c0-83.264 72.404-151.013 161.357-151.013h581.819c88.953 0 161.357 67.75 161.357 151.014v474.246c0.517 82.748-72.404 150.497-161.357 150.497z m-581.818-711.11c-53.268 0-96.71 38.787-96.71 86.367v474.246c0 47.58 43.442 86.368 96.71 86.368h581.819c53.268 0 96.71-38.788 96.71-86.368V210.49c0-47.58-43.442-86.368-96.71-86.368H220.832z" p-id="86461"></path><path d="M728.178 350.125L471.143 607.16c-4.654 4.654-11.377 7.24-18.1 7.24s-13.447-2.586-18.102-7.24L296.34 468.558c-10.343-10.344-10.343-26.376 0-36.202 10.344-10.344 26.376-10.344 36.202 0l119.984 119.983L691.46 313.406c10.343-10.343 26.375-10.343 36.202 0 10.343 10.343 10.343 26.376 0.517 36.72z" p-id="86462"></path></svg>