<?xml version="1.0" standalone="no"?><!DOCTYPE svg PUBLIC "-//W3C//DTD SVG 1.1//EN" "http://www.w3.org/Graphics/SVG/1.1/DTD/svg11.dtd"><svg t="1589532511967" class="icon" viewBox="0 0 1073 1024" version="1.1" xmlns="http://www.w3.org/2000/svg" p-id="20712" xmlns:xlink="http://www.w3.org/1999/xlink" width="209.5703125" height="200"><defs><style type="text/css"></style></defs><path d="M964.464751 310.519852C1015.126807 135.549285 1072.744944 86.01864 1072.744944 86.01864 632.123339 45.7488 427.421813 355.409619 387.413875 401.62984S262.235854 345.509775 182.125692 290.709689C74.484537 216.75943 44.439297 332.938545 27.541469 334.949942S0 371.27032 0 371.27032s78.863515-73.332174 137.69687 157.140373C205.330087 792.511279 366.137068 958.901982 629.609093 939.102295c19.401598-1.319979 37.546073-3.970413 54.475329-6.599896l-27.530993-44.910718 70.095082 36.980367c185.876109-40.940305 245.338026-142.620602 245.338026-142.620602-299.792403 26.410059-311.682691-70.650312-311.682691-70.650311 212.160455-67.350364 253.519801-225.810715 304.171381-400.781283z m0 0" fill="#FFFFFF" p-id="20713"></path><path d="M691.417639 941.124167H383.118704c-23.571056 0-42.668849 18.563516-42.668849 41.443155s19.097793 41.432678 42.668849 41.432678H691.417639c23.571056 0 42.668849-18.55304 42.66885-41.432678s-19.076841-41.443154-42.66885-41.443155zM900.089578 0H174.467718C78.570186 0 0.911414 75.469283 0.911414 168.548764v517.515627c0 93.152813 77.658772 168.580192 173.556304 168.580191h725.62186c95.855627 0 173.56678-75.427379 173.56678-168.548763v-517.515627C1073.656358 75.469283 995.945205 0 900.089578 0z m85.788168 684.93298c0 47.142112-38.478439 84.499616-85.788168 84.499616H174.467718c-47.309728 0-85.788167-37.378457-85.788168-83.315825v-517.515627c0-45.937369 38.478439-83.30535 85.788168-83.30535h725.62186c47.309728 0 85.788167 37.367981 85.788168 82.111083zM839.12959 297.382917a44.82691 44.82691 0 0 0-62.049495 1.63426l-165.521193 169.711602-126.927517-131.8722a44.795482 44.795482 0 0 0-63.086621-1.047603L234.537244 517.452771a41.746959 41.746959 0 0 0 0 60.268571 44.805958 44.805958 0 0 0 62.070447 0L451.516671 427.275149l127.807503 132.710283a44.460249 44.460249 0 0 0 31.920447 13.503596h0.136189a44.51263 44.51263 0 0 0 31.847115-13.304552l197.619733-202.55394a41.757435 41.757435 0 0 0-1.718068-60.247619z" fill="" p-id="20714"></path></svg>