<?xml version="1.0" standalone="no"?><!DOCTYPE svg PUBLIC "-//W3C//DTD SVG 1.1//EN" "http://www.w3.org/Graphics/SVG/1.1/DTD/svg11.dtd"><svg t="1589622639188" class="icon" viewBox="0 0 1024 1024" version="1.1" xmlns="http://www.w3.org/2000/svg" p-id="9069" xmlns:xlink="http://www.w3.org/1999/xlink" width="200" height="200"><defs><style type="text/css"></style></defs><path d="M251.76113265 962.4629257a125.27159459 125.27159459 0 0 1-125.09998965-125.09998966V186.63706396A125.27159459 125.27159459 0 0 1 251.76113265 61.5370743h520.56353716a125.27159459 125.27159459 0 0 1 125.09998966 125.09998966v650.64006963a125.27159459 125.27159459 0 0 1-125.09998966 125.09998964z m0-845.84067077a70.18641395 70.18641395 0 0 0-70.1006115 70.10061148v650.64006963a70.18641395 70.18641395 0 0 0 70.1006115 70.10061148h520.56353716a70.18641395 70.18641395 0 0 0 70.1006115-70.10061148V186.63706396a70.18641395 70.18641395 0 0 0-70.1006115-70.10061148z" fill="#333333" p-id="9070"></path><path d="M306.07409111 539.5425903a27.5425903 27.5425903 0 1 1 0-54.99937814h411.85181778a27.5425903 27.5425903 0 1 1 0 54.99937814zM306.07409111 669.61912275a27.5425903 27.5425903 0 1 1 0-54.65616831h281.00306317a27.5425903 27.5425903 0 1 1 0 55.08518063zM306.07409111 409.03704556a27.5425903 27.5425903 0 1 1 0-55.08518063h411.85181778a27.5425903 27.5425903 0 1 1 0 55.08518063z" fill="#333333" p-id="9071"></path></svg>