<?xml version="1.0" standalone="no"?><!DOCTYPE svg PUBLIC "-//W3C//DTD SVG 1.1//EN" "http://www.w3.org/Graphics/SVG/1.1/DTD/svg11.dtd"><svg t="1589622950695" class="icon" viewBox="0 0 1024 1024" version="1.1" xmlns="http://www.w3.org/2000/svg" p-id="23415" xmlns:xlink="http://www.w3.org/1999/xlink" width="200" height="200"><defs><style type="text/css"></style></defs><path d="M617.813333 653.653333c18.773333 0 34.133333-15.36 34.133334-34.133333s-15.36-34.133333-34.133334-34.133333-34.133333 15.36-34.133333 34.133333 15.36 34.133333 34.133333 34.133333zM322.56 262.826667c5.12 10.24 13.653333 15.36 25.6 15.36 3.413333 0 6.826667 0 10.24-1.706667l286.72-129.706667 3.413333-1.706666c1.706667-1.706667 3.413333-1.706667 6.826667-1.706667 6.826667 13.653333 22.186667 44.373333 35.84 69.973333 6.826667 15.36 13.653333 29.013333 18.773333 39.253334 3.413333 6.826667 8.533333 11.946667 15.36 13.653333 6.826667 1.706667 13.653333 1.706667 20.48-1.706667 5.12-1.706667 10.24-6.826667 11.946667-13.653333 3.413333-6.826667 1.706667-15.36 0-22.186667-13.653333-30.72-42.666667-92.16-56.32-116.053333-8.533333-13.653333-20.48-23.893333-34.133333-25.6-23.893333-5.12-44.373333 5.12-46.08 6.826667L336.213333 221.866667c-13.653333 10.24-20.48 25.6-13.653333 40.96z" p-id="23416"></path><path d="M904.533333 477.866667h-34.133333v-69.973334c0-54.613333-44.373333-98.986667-98.986667-98.986666H192.853333c-54.613333 0-98.986667 44.373333-98.986666 98.986666v430.08c0 54.613333 44.373333 98.986667 98.986666 98.986667h578.56c54.613333 0 98.986667-44.373333 98.986667-98.986667v-71.68h34.133333c15.36 0 27.306667-11.946667 27.306667-27.306666V503.466667c-1.706667-13.653333-13.653333-25.6-27.306667-25.6z m-134.826666 402.773333H192.853333c-25.6 0-46.08-20.48-46.08-46.08V406.186667c0-25.6 20.48-46.08 46.08-46.08h578.56c25.6 0 46.08 20.48 46.08 46.08V477.866667H585.386667c-54.613333 0-98.986667 44.373333-98.986667 98.986666v90.453334c0 54.613333 44.373333 98.986667 98.986667 98.986666h230.4V836.266667c0 25.6-20.48 44.373333-46.08 44.373333zM541.013333 583.68l1.706667-6.826667c0-25.6 20.48-46.08 46.08-46.08h290.133333v182.613334H585.386667c-25.6 0-46.08-20.48-46.08-46.08v-83.626667z" p-id="23417"></path></svg>