<?xml version="1.0" standalone="no"?><!DOCTYPE svg PUBLIC "-//W3C//DTD SVG 1.1//EN" "http://www.w3.org/Graphics/SVG/1.1/DTD/svg11.dtd"><svg t="1589532279439" class="icon" viewBox="0 0 1024 1024" version="1.1" xmlns="http://www.w3.org/2000/svg" p-id="14214" xmlns:xlink="http://www.w3.org/1999/xlink" width="200" height="200"><defs><style type="text/css"></style></defs><path d="M885.76 646.4h-20.053333a24.746667 24.746667 0 0 1-21.76-16.213333l-11.093334-27.733334a23.893333 23.893333 0 0 1 3.413334-26.453333l14.506666-14.08a17.066667 17.066667 0 0 0 0-23.893333l-23.893333-23.466667a16.64 16.64 0 0 0-23.466667 0l-14.08 14.08a23.466667 23.466667 0 0 1-26.453333 4.266667l-27.733333-11.52a24.32 24.32 0 0 1-16.213334-21.76v-20.053334a17.066667 17.066667 0 0 0-16.64-16.64h-33.28a17.066667 17.066667 0 0 0-16.64 16.64v20.053334a23.466667 23.466667 0 0 1-15.786666 21.76l-27.733334 11.52a23.466667 23.466667 0 0 1-26.453333-4.266667l-14.506667-14.08a16.64 16.64 0 0 0-23.466666 0l-23.466667 23.466667a17.066667 17.066667 0 0 0 0 23.893333l14.08 14.08a23.893333 23.893333 0 0 1 3.84 26.453333l-11.52 27.733334a23.893333 23.893333 0 0 1-21.333333 16.213333h-20.053334a16.64 16.64 0 0 0-16.64 16.64v33.28a17.066667 17.066667 0 0 0 16.64 16.64h20.053334a23.466667 23.466667 0 0 1 21.333333 15.786667l11.52 27.733333a23.466667 23.466667 0 0 1-3.84 26.453333l-14.08 14.08a17.066667 17.066667 0 0 0 0 23.893334l23.466667 23.466666a16.64 16.64 0 0 0 11.946666 4.693334 16.64 16.64 0 0 0 11.52-4.693334l14.08-14.08a23.466667 23.466667 0 0 1 26.453334-3.84l28.16 11.52a23.893333 23.893333 0 0 1 15.786666 21.333334v20.053333a17.066667 17.066667 0 0 0 16.64 16.64h33.28a16.64 16.64 0 0 0 16.64-16.64v-20.053333a23.893333 23.893333 0 0 1 15.786667-21.333334l28.16-11.52a22.613333 22.613333 0 0 1 26.453333 3.84l14.08 14.08a16.64 16.64 0 0 0 11.946667 4.693334 16.64 16.64 0 0 0 11.52-4.693334l23.466667-23.466666a16.64 16.64 0 0 0 0-23.893334l-14.08-14.08a23.893333 23.893333 0 0 1-3.84-26.453333l11.52-27.733333a23.893333 23.893333 0 0 1 21.76-15.786667h20.053333a17.066667 17.066667 0 0 0 16.64-16.64v-33.706667a16.64 16.64 0 0 0-16.64-16.213333z m-200.106667 116.48a85.333333 85.333333 0 1 1 83.2-85.333333 82.773333 82.773333 0 0 1-83.2 85.333333z m0 0M765.013333 247.893333a306.346667 306.346667 0 0 1 32.426667 45.653334A341.333333 341.333333 0 0 1 845.226667 469.333333v13.653334a240.213333 240.213333 0 0 1 45.653333 55.893333A406.613333 406.613333 0 0 0 896 469.333333a395.946667 395.946667 0 0 0-54.186667-202.24 330.666667 330.666667 0 0 0-56.32-72.533333 26.88 26.88 0 0 0-17.493333-5.973333 26.453333 26.453333 0 0 0-17.92 8.533333 26.026667 26.026667 0 0 0 2.133333 36.266667 123.306667 123.306667 0 0 1 13.653334 14.506666zM668.586667 367.36a241.92 241.92 0 0 1 17.92 51.2 282.026667 282.026667 0 0 1 53.333333 7.68 290.986667 290.986667 0 0 0-25.173333-81.493333 189.866667 189.866667 0 0 0-29.866667-46.08 25.6 25.6 0 0 0-35.413333 0 25.6 25.6 0 0 0-2.133334 35.413333 134.826667 134.826667 0 0 1 21.333334 33.28zM494.506667 133.973333L290.133333 265.386667H170.666667a85.333333 85.333333 0 0 0-85.333334 85.333333v238.506667a85.333333 85.333333 0 0 0 85.333334 85.333333h119.466666l139.946667 90.026667a248.746667 248.746667 0 0 1 116.053333-319.146667V163.413333c0-28.586667-23.04-41.813333-51.626666-29.44z" fill="#333333" p-id="14215"></path></svg>