<?xml version="1.0" standalone="no"?><!DOCTYPE svg PUBLIC "-//W3C//DTD SVG 1.1//EN" "http://www.w3.org/Graphics/SVG/1.1/DTD/svg11.dtd"><svg t="1589531986524" class="icon" viewBox="0 0 1024 1024" version="1.1" xmlns="http://www.w3.org/2000/svg" p-id="8722" xmlns:xlink="http://www.w3.org/1999/xlink" width="200" height="200"><defs><style type="text/css"></style></defs><path d="M957.12032 198.848h-74.56a118.816 118.816 0 0 0 18.24-51.584 132.544 132.544 0 0 0-220.8-112.64l-94.08 85.44a99.808 99.808 0 0 0-147.84 0l-94.4-85.536A132.544 132.544 0 0 0 122.88032 147.2a118.688 118.688 0 0 0 18.24 51.552H66.88032A66.784 66.784 0 0 0 0.00032 265.664v100.352a33.44 33.44 0 0 0 33.28 33.44h957.44A33.44 33.44 0 0 0 1024.00032 366.016V265.664a66.976 66.976 0 0 0-66.88-66.816z m-545.28-11.136v11.136H254.72032a65.92 65.92 0 0 1-27.84-125.568 64.288 64.288 0 0 1 72 10.88l112.96 102.56v0.992z m422.72-49.312a67.776 67.776 0 0 1-68.48 60.48h-153.92v-12.352c25.6-23.232 80.96-73.6 111.04-100.96a67.2 67.2 0 0 1 63.36-16 65.184 65.184 0 0 1 48 68.832zM66.88032 466.464v490.592a66.72 66.72 0 0 0 66.56 66.912h311.68V466.464H66.88032z m512 0V1024h311.68a66.72 66.72 0 0 0 66.56-66.912V466.464H578.88032z" p-id="8723"></path></svg>