<?xml version="1.0" standalone="no"?><!DOCTYPE svg PUBLIC "-//W3C//DTD SVG 1.1//EN" "http://www.w3.org/Graphics/SVG/1.1/DTD/svg11.dtd"><svg t="1589532385279" class="icon" viewBox="0 0 1024 1024" version="1.1" xmlns="http://www.w3.org/2000/svg" p-id="16350" xmlns:xlink="http://www.w3.org/1999/xlink" width="200" height="200"><defs><style type="text/css"></style></defs><path d="M862.208 0H179.2C104.448 0 43.008 61.44 43.008 136.192v136.192h67.584V136.192c0-37.888 30.72-68.608 68.608-68.608h683.008c37.888 0 68.608 30.72 68.608 68.608v751.616c0 37.888-30.72 68.608-68.608 68.608H179.2c-18.432 0-35.84-7.168-48.128-20.48-13.312-13.312-20.48-30.72-20.48-49.152V751.616H43.008v136.192C43.008 962.56 104.448 1024 179.2 1024h683.008C936.96 1024 998.4 962.56 998.4 887.808V136.192C998.4 61.44 936.96 0 862.208 0z" p-id="16351" fill="#333333"></path><path d="M268.288 536.576L142.336 663.552c-9.216 9.216-9.216 24.576 0 33.792l1.024 1.024c9.216 8.192 24.576 8.192 32.768-1.024L343.04 530.432c5.12-5.12 7.168-11.264 7.168-18.432 0-6.144-2.048-13.312-7.168-18.432L176.128 326.656c-9.216-9.216-23.552-9.216-32.768-1.024 0 0-1.024 0-1.024 1.024-9.216 9.216-9.216 24.576 0 33.792l126.976 126.976H50.176C36.864 487.424 25.6 498.688 25.6 512c0 13.312 11.264 24.576 24.576 24.576h218.112zM461.824 555.008c-19.456 2.048-29.696 10.24-31.744 25.6 2.048 15.36 12.288 22.528 31.744 22.528h100.352v114.688c2.048 19.456 12.288 28.672 31.744 28.672 21.504 0 31.744-9.216 31.744-28.672V604.16h100.352c21.504 0 31.744-7.168 31.744-22.528 0-15.36-10.24-23.552-31.744-25.6h-100.352v-52.224h100.352c21.504 0 31.744-7.168 31.744-22.528 0-15.36-10.24-23.552-31.744-25.6h-68.608l83.968-124.928c2.048 0 4.096-2.048 6.144-6.144 4.096-6.144 6.144-13.312 6.144-22.528 0-13.312-8.192-22.528-25.6-25.6-13.312 2.048-24.576 8.192-34.816 20.48l-98.304 141.312L496.64 295.936c-7.168-11.264-19.456-18.432-34.816-20.48-15.36 4.096-23.552 12.288-25.6 25.6 0 6.144 3.072 13.312 8.192 22.528 2.048 2.048 3.072 4.096 3.072 6.144l83.968 124.928h-68.608c-19.456 2.048-29.696 10.24-31.744 25.6 2.048 15.36 12.288 22.528 31.744 22.528h100.352v52.224h-101.376z" p-id="16352" fill="#333333"></path></svg>