<?xml version="1.0" standalone="no"?><!DOCTYPE svg PUBLIC "-//W3C//DTD SVG 1.1//EN" "http://www.w3.org/Graphics/SVG/1.1/DTD/svg11.dtd"><svg t="1589533779683" class="icon" viewBox="0 0 1024 1024" version="1.1" xmlns="http://www.w3.org/2000/svg" p-id="52320" xmlns:xlink="http://www.w3.org/1999/xlink" width="200" height="200"><defs><style type="text/css"></style></defs><path d="M467.8 320h3.6c11 0 20.1 8.3 21.2 19.2L512 533.3l138.6 79.2c6.6 3.8 10.7 10.9 10.7 18.5v9c0 9-7.3 16.3-16.3 16.3-1.4 0-2.9-0.2-4.3-0.6l-197-53.7c-9.9-2.7-16.4-12-15.7-22.2l18.5-240.1c0.8-11.1 10.1-19.7 21.3-19.7z" p-id="52321"></path><path d="M315.3 121c53.9-23 113.1-35.7 175.4-35.7 247.4 0 448 200.6 448 448s-200.6 448-448 448-448-200.6-448-448c0-42 5.8-82.7 16.6-121.3l82.2 23c-8.9 31.7-13.4 64.6-13.4 98.2C128 733.6 290.4 896 490.7 896s362.7-162.4 362.7-362.7S691 170.7 490.7 170.7c-40.6 0-80.1 6.7-117.4 19.4l50.8 60.5c3 3.5 4.7 7.9 5 12.5 0.7 11.8-8.3 21.8-20.1 22.5l-207.7 11.8c-2.1 0.1-4.1-0.1-6.2-0.5-11.5-2.7-18.5-14.2-15.8-25.7l48.1-201.9c1.1-4.5 3.5-8.4 7-11.4 9-7.6 22.5-6.4 30.1 2.6l50.8 60.5z" p-id="52322"></path></svg>