<?xml version="1.0" standalone="no"?><!DOCTYPE svg PUBLIC "-//W3C//DTD SVG 1.1//EN" "http://www.w3.org/Graphics/SVG/1.1/DTD/svg11.dtd"><svg t="1589622191201" class="icon" viewBox="0 0 1024 1024" version="1.1" xmlns="http://www.w3.org/2000/svg" p-id="2998" xmlns:xlink="http://www.w3.org/1999/xlink" width="200" height="200"><defs><style type="text/css"></style></defs><path d="M866.873 196.267H472.178c-65.081 0-118.443 53.248-118.443 118.329v552.391c0 65.081 53.248 118.329 118.443 118.329h394.695c65.081 0 118.443-53.248 118.443-118.329V314.596c0-65.081-53.248-118.329-118.443-118.329z m59.278 670.72c0 15.701-6.144 30.493-17.408 41.757s-26.055 17.408-41.757 17.408H472.177c-15.701 0-30.493-6.144-41.757-17.408s-17.408-26.055-17.408-41.757V403.798l62.464 62.009c16.498 16.384 38.457 25.486 61.667 25.486h264.875c23.211 0 45.056-8.989 61.667-25.486l62.464-62.009v463.189z m0-548.182c-1.479 3.527-3.755 6.827-6.599 9.671l-96.825 96.142c-5.575 5.575-12.971 8.533-20.707 8.533H537.145c-7.737 0-15.133-3.072-20.707-8.533l-96.825-96.142c-2.845-2.845-5.006-6.144-6.599-9.671v-4.21c0-15.701 6.144-30.493 17.408-41.757s26.055-17.408 41.757-17.408h394.695c15.701 0 30.493 6.144 41.757 17.408s17.408 26.055 17.408 41.757v4.21z m-697.913 35.272l-118.443-67.811c-3.413-1.934-6.485-4.551-8.875-7.623l-1.138-4.096c-4.096-15.133-1.934-31.061 6.03-44.829 7.965-13.767 20.707-23.552 35.84-27.648l381.269-102.059c15.133-4.096 31.061-1.934 44.829 6.03s23.552 20.707 27.648 35.84l0.114 0.227h0.114l3.982 14.791h61.213l-8.192-30.379C635.79 63.601 570.482 25.941 507.562 42.779L126.293 144.838c-62.919 16.839-100.579 82.034-83.741 144.953l143.019 533.504c15.36 57.458 71.111 93.753 128.683 86.813v-60.075c-14.791 3.641-30.379 1.479-43.805-6.258-13.767-7.965-23.552-20.707-27.648-35.84L122.993 360.674l76.459 43.805c20.253 11.605 43.691 14.677 66.105 8.647l48.811-13.085v-60.075l-63.829 17.067a29.975 29.975 0 0 1-22.301-2.958z m505.173 333.141c-8.647-6.03-17.863-10.809-27.762-14.222s-19.115-6.941-27.762-10.581c-8.647-3.641-15.815-8.078-21.504-13.085-5.689-5.006-8.533-12.061-8.533-20.821 0-5.803 1.821-11.15 5.347-16.157 3.527-4.893 9.102-7.395 16.725-7.395 6.827 0 11.947 2.845 15.246 8.533 3.299 5.689 4.893 12.288 4.893 19.911v5.689h66.105c0-26.055-5.689-45.397-17.067-58.254-11.378-12.743-29.81-20.366-55.069-22.983v-21.959H649.1v21.959c-46.421 7.623-69.518 35.043-69.518 82.261 0 15.474 2.731 27.989 8.192 37.547 5.461 9.557 12.288 17.408 20.48 23.325 8.192 5.917 17.181 10.695 26.738 14.45 9.671 3.641 18.546 7.282 26.738 11.037 8.192 3.641 15.019 8.078 20.48 13.085 5.461 5.006 8.192 11.833 8.192 20.48 0 6.827-1.934 12.629-5.917 17.408-3.982 4.779-9.557 7.168-16.953 7.168-7.054 0-12.743-2.162-17.067-6.485-4.323-4.323-6.485-12.174-6.485-23.552v-7.054h-68.267v10.24c0 24.007 6.258 41.529 18.659 52.565s30.606 17.749 54.727 20.253v34.133h34.93v-34.133c26.055-2.731 45.853-10.354 59.278-22.755 13.426-12.402 20.139-31.517 20.139-57.23 0-16.384-2.845-29.582-8.533-39.481-5.689-9.899-12.857-17.863-21.504-23.893z" p-id="2999"></path></svg>