<?xml version="1.0" standalone="no"?><!DOCTYPE svg PUBLIC "-//W3C//DTD SVG 1.1//EN" "http://www.w3.org/Graphics/SVG/1.1/DTD/svg11.dtd"><svg t="1589532060695" class="icon" viewBox="0 0 1024 1024" version="1.1" xmlns="http://www.w3.org/2000/svg" p-id="9459" xmlns:xlink="http://www.w3.org/1999/xlink" width="200" height="200"><defs><style type="text/css"></style></defs><path d="M915.70051 0C975.207224 0 1023.624671 54.559195 1023.624671 121.606611v521.775616c0 67.081537-48.417447 121.640732-107.924161 121.640731l-357.65446-0.034121v157.979408h221.717104c25.556496 0 46.267835 22.519743 46.267835 50.328213 0 27.80847-20.711339 50.328213-46.267835 50.328213H241.916631c-25.522375 0-46.233714-22.519743-46.233715-50.328213 0-27.774349 20.711339-50.328213 46.233715-50.328213h223.627869v-157.979408H107.89004C48.451568 764.988837 0 710.497884 0 643.416347V121.606611C0 54.593316 48.417447 0 107.89004 0h807.81047z m0 100.656426H107.924161c-8.223118 0-15.422612 9.792676-15.422612 20.950185v521.775616c0 11.19163 7.199494 20.984306 15.422612 20.984305h807.776349c8.223118 0 15.422612-9.792676 15.422612-20.984305V121.606611c0-11.157509-7.199494-20.950185-15.422612-20.950185z m-135.118457 97.858519c25.590617 0 46.267835 22.519743 46.267835 50.328213v287.433807c0 27.774349-20.711339 50.294092-46.233714 50.294092-25.556496 0-46.267835-22.519743-46.267835-50.294092V248.843158c0-27.774349 20.711339-50.328213 46.267835-50.328213z m-179.23668 135.220819c25.522375 0 46.233714 22.519743 46.233715 50.328213v152.178867c0 27.80847-20.711339 50.328213-46.233715 50.328213-25.590617 0-46.267835-22.519743-46.267835-50.294092v-152.212988c0-27.80847 20.711339-50.328213 46.267835-50.328213z m-179.304921-60.257373c25.556496 0 46.267835 22.519743 46.267835 50.328213v212.470361c0 27.774349-20.711339 50.294092-46.267835 50.294092-25.522375 0-46.233714-22.519743-46.233714-50.294092V323.806604c0-27.80847 20.711339-50.328213 46.233714-50.328213zM242.769651 171.627736c25.556496 0 46.233714 22.519743 46.233714 50.294093v314.355136c0 27.774349-20.677218 50.294092-46.233714 50.294092s-46.267835-22.519743-46.267835-50.294092V221.921829c0-27.774349 20.711339-50.294092 46.267835-50.294093z" p-id="9460"></path></svg>