<?xml version="1.0" standalone="no"?><!DOCTYPE svg PUBLIC "-//W3C//DTD SVG 1.1//EN" "http://www.w3.org/Graphics/SVG/1.1/DTD/svg11.dtd"><svg t="1589597183087" class="icon" viewBox="0 0 1024 1024" version="1.1" xmlns="http://www.w3.org/2000/svg" p-id="102989" xmlns:xlink="http://www.w3.org/1999/xlink" width="200" height="200"><defs><style type="text/css"></style></defs><path d="M247.47008 448.9728c-93.184 0-168.62208-76.032-168.62208-169.69728 0-93.66528 75.42784-169.70752 168.62208-169.70752 93.184 0 168.61184 76.04224 168.61184 169.70752s-75.42784 169.69728-168.61184 169.69728z m0-67.584c55.73632 0 101.02784-45.66016 101.02784-102.11328 0-56.46336-45.29152-102.12352-101.02784-102.12352-55.74656 0-101.03808 45.66016-101.03808 102.12352 0 56.45312 45.29152 102.11328 101.03808 102.11328z m0.2048 536.6272c-93.184 0-168.61184-76.04224-168.61184-169.70752s75.43808-169.69728 168.62208-169.69728c93.184 0 168.62208 76.032 168.62208 169.69728 0 93.66528-75.43808 169.70752-168.62208 169.70752z m0-67.584c55.74656 0 101.04832-45.66016 101.04832-102.12352 0-56.45312-45.30176-102.11328-101.03808-102.11328-55.73632 0-101.03808 45.66016-101.03808 102.11328 0 56.46336 45.30176 102.12352 101.03808 102.12352z m290.18112-638.53568a33.792 33.792 0 1 1 0-67.584h328.27392a33.792 33.792 0 1 1 0 67.584H537.856z m0 203.86816a33.792 33.792 0 1 1 0-67.584h328.27392a33.792 33.792 0 1 1 0 67.584H537.856z m-2.32448 270.7456a33.792 33.792 0 0 1 0-67.584h328.26368a33.792 33.792 0 1 1 0 67.584H535.53152z m0 203.86816a33.792 33.792 0 0 1 0-67.584h328.26368a33.792 33.792 0 1 1 0 67.584H535.53152z" p-id="102990"></path></svg>