<?xml version="1.0" standalone="no"?><!DOCTYPE svg PUBLIC "-//W3C//DTD SVG 1.1//EN" "http://www.w3.org/Graphics/SVG/1.1/DTD/svg11.dtd"><svg t="1589537409839" class="icon" viewBox="0 0 1024 1024" version="1.1" xmlns="http://www.w3.org/2000/svg" p-id="69239" xmlns:xlink="http://www.w3.org/1999/xlink" width="200" height="200"><defs><style type="text/css"></style></defs><path d="M468.08 275.077l-44.007 129.051h85.698z" p-id="69240" fill="#333333"></path><path d="M884.915 273.766v549.103H250.947c-61.789 0-111.875-48.781-111.875-108.951 0-60.17 50.086-108.951 111.875-108.951H810.33V128.5H213.665c-82.285 0.234-148.929 65.136-149.165 145.266v476.472c0.236 80.13 66.88 145.032 149.165 145.262H959.5V273.766h-74.585z m-456.546-72.58h81.402l117.521 326.988h-76.328l-21.532-67.49H405.325l-23.389 67.49h-74.012l120.445-326.988z" p-id="69241" fill="#333333"></path><path d="M288.25 677.599h522.08v72.639H288.25z" p-id="69242" fill="#333333"></path></svg>