<?xml version="1.0" standalone="no"?><!DOCTYPE svg PUBLIC "-//W3C//DTD SVG 1.1//EN" "http://www.w3.org/Graphics/SVG/1.1/DTD/svg11.dtd"><svg t="1589537552565" class="icon" viewBox="0 0 1024 1024" version="1.1" xmlns="http://www.w3.org/2000/svg" p-id="76563" xmlns:xlink="http://www.w3.org/1999/xlink" width="200" height="200"><defs><style type="text/css"></style></defs><path d="M1004.8 876.8c-19.2-134.4-108.8-243.2-224-294.4 64-38.4 102.4-115.2 102.4-192 0-128-102.4-230.4-230.4-230.4S422.4 262.4 422.4 390.4c0 83.2 38.4 153.6 102.4 192-115.2 44.8-198.4 153.6-224 294.4-6.4 25.6 0 51.2 19.2 70.4 12.8 19.2 38.4 32 64 32h537.6c25.6 0 44.8-12.8 64-32 12.8-19.2 19.2-44.8 19.2-70.4zM486.4 396.8c0-89.6 76.8-166.4 166.4-166.4s166.4 76.8 166.4 166.4-76.8 166.4-166.4 166.4-166.4-76.8-166.4-166.4z m448 505.6s-6.4 6.4-12.8 6.4H384c-6.4 0-12.8-6.4-12.8-6.4s-6.4-6.4-6.4-12.8c25.6-153.6 147.2-262.4 288-262.4s262.4 108.8 288 262.4c0 6.4-6.4 12.8-6.4 12.8z" fill="" p-id="76564"></path><path d="M390.4 140.8c19.2 0 32-12.8 32-32s-12.8-32-32-32C256 76.8 147.2 185.6 147.2 320c0 83.2 44.8 160 108.8 204.8C134.4 569.6 44.8 684.8 19.2 832c-6.4 25.6 6.4 51.2 19.2 70.4 19.2 19.2 38.4 32 64 32h38.4c19.2 0 32-12.8 32-32s-12.8-32-32-32h-32c-6.4 0-12.8-6.4-19.2-6.4 0 0-6.4-6.4-6.4-19.2 25.6-153.6 140.8-268.8 275.2-281.6 12.8 0 19.2-6.4 25.6-19.2 0-6.4 6.4-12.8 6.4-19.2s0-12.8-6.4-19.2l-12.8-12.8h-6.4C275.2 480 211.2 409.6 211.2 320c0-96 76.8-179.2 179.2-179.2z" fill="" p-id="76565"></path></svg>