<?xml version="1.0" standalone="no"?><!DOCTYPE svg PUBLIC "-//W3C//DTD SVG 1.1//EN" "http://www.w3.org/Graphics/SVG/1.1/DTD/svg11.dtd"><svg t="1589531760237" class="icon" viewBox="0 0 1024 1024" version="1.1" xmlns="http://www.w3.org/2000/svg" p-id="2254" xmlns:xlink="http://www.w3.org/1999/xlink" width="200" height="200"><defs><style type="text/css"></style></defs><path d="M670.023 512.952c0-88.476-71.984-160.456-160.465-160.456-88.475 0-160.455 71.98-160.455 160.456 0 88.475 71.98 160.456 160.455 160.456 88.477-0.001 160.462-71.98 160.465-160.456z m-249.746 0c0-49.228 40.052-89.277 89.282-89.277 49.232 0 89.286 40.049 89.286 89.277 0 49.233-40.054 89.287-89.286 89.287-49.23-0.001-89.282-40.054-89.282-89.287z" p-id="2255"></path><path d="M946.673 426.495c-5.67-29.943-24.377-48.979-47.635-48.512h-3.678c-56.78 0-102.974-46.196-102.974-102.979 0-18.263 8.9-38.995 8.967-39.15 11.531-25.958 2.661-57.793-20.631-74.05l-1.494-1.043-109.09-60.603-2.012-0.933c-7.704-3.346-16.11-5.043-24.986-5.043-18.122 0-35.983 7.311-47.759 19.536-11.606 11.982-51.518 46.186-81.646 46.186-30.392 0-70.554-34.877-82.203-47.069C419.691 100.352 401.69 92.9 383.38 92.9c-8.705 0-16.961 1.638-24.528 4.864l-1.636 0.695-113.38 62.281-1.535 1.065c-23.357 16.229-32.278 48.042-20.753 73.998 2.508 5.757 8.993 23.974 8.993 39.201 0 56.783-46.196 102.979-102.979 102.979h-3.67c-23.267-0.45-41.97 18.554-47.639 48.525-0.948 5.035-9.266 50.248-9.266 87.013 0 36.52 8.315 81.945 9.268 87.027 5.584 29.475 23.973 48.52 46.846 48.52 0.258 0 0.525-0.004 0.789-0.01h3.672c56.783 0 102.979 46.196 102.979 102.979 0 18.271-8.899 38.991-8.967 39.149-11.524 25.936-2.679 57.768 20.574 74.043l1.473 1.031 107.022 59.848 1.982 0.922c7.703 3.385 16.094 5.102 24.94 5.102 18.403 0 36.411-7.637 48.167-20.424 14.746-16.024 54.549-49.112 83.46-49.112 31.274 0 72.173 37.104 84.009 50.073 11.776 13.007 29.908 20.773 48.505 20.777h0.005c8.681 0 16.924-1.657 24.482-4.919l1.153-0.495 111.825-61.752 1.512-1.056c23.291-16.229 32.191-47.991 20.723-73.917-0.505-1.188-9.021-21.508-9.021-39.271 0-56.783 46.196-102.979 102.979-102.979h3.68c23.262 0.43 41.969-18.616 47.621-48.506 0.379-1.989 9.275-49.137 9.275-87.036 0.001-36.642-8.316-81.96-9.267-87.02zM377.274 859.446l-86.953-48.618c4.655-12.68 11.399-35.137 11.399-58.79 0-44.855-17.077-87.485-48.084-120.037-29.034-30.479-67.457-49.216-108.925-53.284-2.271-13.811-6.545-42.791-6.545-65.195 0-22.369 4.273-51.374 6.542-65.197 41.468-4.068 79.894-22.803 108.925-53.281 31.007-32.551 48.083-75.182 48.083-120.04 0-23.528-6.877-46.294-11.352-58.615l92.991-51.073c6.013 5.923 18.914 17.966 35.911 30.078 33.228 23.685 65.012 35.693 94.469 35.693 29.16 0 60.689-11.776 93.711-35.003 16.927-11.907 29.853-23.823 35.705-29.5l89.434 49.686c-4.65 12.675-11.377 35.102-11.377 58.735 0 44.857 17.077 87.489 48.085 120.04 29.034 30.479 67.461 49.215 108.933 53.281 2.343 14.195 6.537 42.751 6.537 65.196 0 22.364-4.274 51.379-6.543 65.205-41.468 4.064-79.894 22.799-108.927 53.278-31.008 32.552-48.085 75.182-48.085 120.038 0 23.563 6.894 46.348 11.374 58.667l-90.551 50.045c-6.119-6.265-19.108-18.869-36.035-31.441-33.869-25.149-66.439-37.9-96.803-37.9-30.076 0-62.397 12.513-96.066 37.19-16.84 12.342-29.636 24.561-35.853 30.842z" p-id="2256"></path></svg>