<?xml version="1.0" standalone="no"?><!DOCTYPE svg PUBLIC "-//W3C//DTD SVG 1.1//EN" "http://www.w3.org/Graphics/SVG/1.1/DTD/svg11.dtd"><svg t="1589622800855" class="icon" viewBox="0 0 1024 1024" version="1.1" xmlns="http://www.w3.org/2000/svg" p-id="14625" xmlns:xlink="http://www.w3.org/1999/xlink" width="200" height="200"><defs><style type="text/css"></style></defs><path d="M405.807407 106.344296a101.584593 101.584593 0 0 0 203.188149 0v-0.018963a101.584593 101.584593 0 0 0-203.188149 0v0.018963z m402.469926 606.359704a101.584593 101.584593 0 0 0 203.188148 0v-0.018963a101.584593 101.584593 0 0 0-203.188148 0v0.018963z m101.584593-185.837037c25.144889 0 48.848593 4.949333 70.807704 13.805037-2.123852-192.568889-119.99763-357.869037-287.440593-429.719704a185.893926 185.893926 0 0 1-15.568593 70.087111C809.339259 242.631111 902.428444 373.57037 909.861926 526.866963z m-897.327407 185.837037a101.584593 101.584593 0 0 0 203.188148 0v-0.018963a101.584593 101.584593 0 1 0-203.188148 0.018963z m92.387555-185.837037c7.092148-153.27763 100.181333-284.254815 232.220445-345.827556a185.893926 185.893926 0 0 1-15.587556-70.087111C153.069037 183.163259 34.834963 350.587259 34.133333 544.919704a188.302222 188.302222 0 0 1 70.788741-18.052741z m673.261037 317.515852a401.123556 401.123556 0 0 1-270.791111 104.77037c-101.944889 0-194.673778-37.869037-265.822815-100.522666a186.633481 186.633481 0 0 1-61.952 38.589629c84.954074 81.768296 200.704 132.380444 327.774815 132.380445a471.172741 471.172741 0 0 0 330.619259-134.864593 187.771259 187.771259 0 0 1-59.828148-40.353185zM407.703704 551.860148l-43.235556-43.235555a61.25037 61.25037 0 0 1 0-86.603852l6.181926-6.181926a61.25037 61.25037 0 0 1 86.603852 0l62.065778 62.065778c23.931259 23.912296 22.888296 63.715556-1.024 87.646814l-4.835556 4.835556a26.130963 26.130963 0 0 0-11.036444 21.31437c0 14.487704 11.738074 26.225778 26.225777 26.225778 5.290667 0 9.993481-1.21363 14.829038-4.835555 3.982222-3.602963 7.054222-6.97837 7.054222-6.978371l11.188148-11.188148a104.675556 104.675556 0 0 0 0-148.024889l-74.107259-74.126222a104.675556 104.675556 0 0 0-148.024889 0l-18.29926 18.318222a104.675556 104.675556 0 0 0 0 148.005926l50.479408 50.479407 1.915259 1.91526c4.645926 4.190815 10.752 6.826667 17.502815 6.826666 14.487704 0 26.225778-11.757037 26.225778-26.225777a25.979259 25.979259 0 0 0-6.01126-16.497778 26.263704 26.263704 0 0 0-3.697777-3.735704z m289.773037 28.311704l-50.479408-50.498371-1.896296-1.896296a26.036148 26.036148 0 0 0-17.521778-6.826666c-14.468741 0-26.225778 11.757037-26.225778 26.225777 0 6.295704 2.313481 11.984593 6.01126 16.497778 1.118815 1.384296 2.351407 2.616889 3.71674 3.735704l43.235556 43.235555a61.25037 61.25037 0 0 1 0 86.603852l-6.200889 6.181926a61.25037 61.25037 0 0 1-86.603852 0l-62.065777-62.065778c-23.912296-23.912296-22.888296-63.715556 1.024-87.646814l4.835555-4.835556a26.130963 26.130963 0 0 0 11.036445-21.31437c0-14.487704-11.738074-26.225778-26.206815-26.225778-5.30963 0-10.012444 1.194667-14.848 4.835555-3.982222 3.602963-7.035259 6.959407-7.03526 6.959408l-11.207111 11.207111a104.675556 104.675556 0 0 0 0 148.024889l74.10726 74.126222a104.675556 104.675556 0 0 0 148.024888 0l18.29926-18.318222a104.675556 104.675556 0 0 0 0-148.005926z" fill="#333333" p-id="14626"></path></svg>