<?xml version="1.0" standalone="no"?><!DOCTYPE svg PUBLIC "-//W3C//DTD SVG 1.1//EN" "http://www.w3.org/Graphics/SVG/1.1/DTD/svg11.dtd"><svg t="1589622420767" class="icon" viewBox="0 0 1024 1024" version="1.1" xmlns="http://www.w3.org/2000/svg" p-id="6252" xmlns:xlink="http://www.w3.org/1999/xlink" width="200" height="200"><defs><style type="text/css"></style></defs><path d="M828.4 195.3c-84.5-84.5-196.9-131-316.4-131s-231.9 46.5-316.4 131C111.1 279.8 64.5 392.1 64.5 511.6c0 119.4 46.5 231.8 131.1 316.2 84.6 84.5 196.9 131 316.4 131s231.9-46.5 316.5-131c84.5-84.5 131-196.8 131-316.2 0-119.5-46.6-231.8-131.1-316.3m-38 594.6L615 614.6c-18.8 18.7-41.4 31.3-65.3 37.7L614 891.9c-32.9 8.7-67.1 13.3-102 13.3s-69.1-4.5-102-13.3l64.2-239.7c-23.9-6.4-46.5-18.9-65.3-37.7L233.5 789.9c-50.7-50.6-84.7-111.8-101.9-176.5l239.6-64.1c-6.6-24.7-6.6-50.8 0-75.4l-239.6-64.1c17.3-64.7 51.2-125.9 101.9-176.5l175.4 175.3c18.8-18.7 41.4-31.3 65.3-37.7L410 131.3c32.9-8.7 67.1-13.3 102-13.3 34.9 0 69.1 4.5 102 13.3L549.8 371c23.9 6.4 46.5 18.9 65.3 37.7l175.4-175.3c49.8 49.7 84.5 110.3 102.2 176.4L652.9 474c6.6 24.7 6.6 50.7 0 75.4l239.8 64.2c-17.8 66-52.5 126.6-102.3 176.3M535.6 390.6L512 275.2l-21.9 115c-23.9 4.3-46.8 15.7-65.3 34.1-48.2 48.2-48.2 126.2 0 174.4 48.2 48.1 126.3 48.1 174.5 0 48.2-48.2 48.2-126.2 0-174.4-18.2-17.9-40.4-29.2-63.7-33.7" p-id="6253"></path></svg>