<?xml version="1.0" standalone="no"?><!DOCTYPE svg PUBLIC "-//W3C//DTD SVG 1.1//EN" "http://www.w3.org/Graphics/SVG/1.1/DTD/svg11.dtd"><svg t="1589622980433" class="icon" viewBox="0 0 1024 1024" version="1.1" xmlns="http://www.w3.org/2000/svg" p-id="24193" xmlns:xlink="http://www.w3.org/1999/xlink" width="200" height="200"><defs><style type="text/css"></style></defs><path d="M349.696 4.096H133.12C61.952 4.096 4.608 61.44 4.608 132.608v216.576C4.608 420.352 61.952 477.696 133.12 477.696h216.576c71.168 0 128.512-57.856 128.512-128.512V132.608C478.208 61.44 420.864 4.096 349.696 4.096z m60.928 345.6c0 33.792-27.136 60.928-60.928 60.928H133.12c-33.792 0-60.928-27.136-60.928-60.928V132.608C72.192 98.816 99.328 71.68 133.12 71.68h216.576c33.792 0 60.928 27.648 60.928 60.928v217.088zM890.88 4.096h-216.576c-71.168 0-128.512 57.856-128.512 128.512v216.576c0 71.168 57.344 128.512 128.512 128.512H890.88c71.168 0 128.512-57.856 128.512-128.512V132.608C1019.392 61.44 962.048 4.096 890.88 4.096z m60.928 345.6c0 33.792-27.136 60.928-60.928 60.928h-216.576c-33.792 0-60.928-27.136-60.928-60.928V132.608c0-33.792 27.648-60.928 60.928-60.928H890.88c33.792 0 60.928 27.648 60.928 60.928v217.088zM349.696 545.792H133.12C61.952 545.792 4.608 603.648 4.608 674.304V890.88c0 71.168 57.344 128.512 128.512 128.512h216.576c71.168 0 128.512-57.856 128.512-128.512v-217.088c0-70.144-57.344-128-128.512-128z m60.928 345.6c0 33.792-27.136 60.928-60.928 60.928H133.12c-33.792 0-60.928-27.136-60.928-60.928v-217.088c0-33.792 27.648-60.928 60.928-60.928h216.576c33.792 0 60.928 27.648 60.928 60.928v217.088z m480.256-345.6h-216.576c-71.168 0-128.512 57.856-128.512 128.512V890.88c0 71.168 57.344 128.512 128.512 128.512H890.88c71.168 0 128.512-57.856 128.512-128.512v-217.088c0-70.144-57.344-128-128.512-128z m60.928 345.6c0 33.792-27.136 60.928-60.928 60.928h-216.576c-33.792 0-60.928-27.136-60.928-60.928v-217.088c0-33.792 27.648-60.928 60.928-60.928H890.88c33.792 0 60.928 27.648 60.928 60.928v217.088z" p-id="24194"></path></svg>