<?xml version="1.0" standalone="no"?><!DOCTYPE svg PUBLIC "-//W3C//DTD SVG 1.1//EN" "http://www.w3.org/Graphics/SVG/1.1/DTD/svg11.dtd"><svg t="1589623113137" class="icon" viewBox="0 0 1024 1024" version="1.1" xmlns="http://www.w3.org/2000/svg" p-id="31672" xmlns:xlink="http://www.w3.org/1999/xlink" width="200" height="200"><defs><style type="text/css"></style></defs><path d="M580.608 477.696h93.696c14.848 0 26.112 12.288 26.112 28.16s-11.776 28.16-26.112 28.16h-130.56v55.808h130.56c14.848 0 26.112 12.288 26.112 28.16s-11.776 28.16-26.112 28.16h-130.56V762.88c0 15.36-11.776 28.16-26.112 28.16S491.52 778.752 491.52 762.88v-117.248H360.96c-14.848 0-26.112-12.288-26.112-28.16s11.776-28.16 26.112-28.16H491.52v-55.808H360.96c-14.848 0-26.112-12.288-26.112-28.16s11.776-28.16 26.112-28.16h92.16l-47.104-50.176c-10.24-10.752-10.24-28.672 0.512-39.424 10.24-10.752 26.112-10.752 36.864 0L517.12 467.456l74.24-79.36c10.24-10.752 26.624-10.24 36.864 0.512s10.24 28.672 0 38.912l-47.616 50.176z" p-id="31673"></path><path d="M821.248 362.496c-22.016-24.576-46.08-47.616-72.192-68.608-3.584-3.072-6.656-5.12-9.728-7.68 45.568-16.896 77.824-56.32 77.824-103.936 0-63.488-56.832-112.128-124.416-112.128-14.848 0-29.184 2.56-42.496 8.192-4.608 2.048-9.728 4.096-14.336 7.168-2.56 1.024-7.168 0-8.704-2.048-6.656-10.752-14.848-19.968-24.064-28.672-21.504-19.968-46.592-32.256-75.776-32.256s-54.272 12.288-75.776 32.256c-9.216 8.192-16.896 17.92-23.552 28.16-2.048 2.56-7.168 3.584-8.704 2.56-4.608-3.072-9.728-5.12-14.336-7.168-13.312-5.632-28.16-8.192-42.496-8.192-67.584 0-124.416 48.64-124.416 112.128 0 40.448 23.552 75.264 58.88 95.232-3.584 3.072-7.68 5.632-11.264 8.704-26.112 20.48-50.176 43.008-72.192 68.096-66.56 74.752-107.008 160.256-107.008 255.488 0 263.68 184.832 389.12 407.552 389.12 93.184 0 184.832-19.968 258.56-66.56 100.352-63.488 157.184-169.984 157.184-322.56-1.024-89.088-41.472-172.032-108.544-247.296z m-307.712 573.952c-194.56 0-349.696-104.96-349.696-327.68 0-77.312 33.792-148.992 91.136-213.504 19.968-22.016 40.96-42.496 64.512-60.416 9.216-7.168 18.944-14.336 28.672-20.48 30.72-21.504 28.16-59.904-2.048-76.288v-0.512h-0.512l-1.024-0.512-1.536-0.512-0.512-0.512h-0.512l-4.096-2.048c-26.624-8.192-43.52-28.16-43.52-49.152 0-27.648 29.696-52.736 68.608-52.736 10.24 0 20.48 2.56 29.696 7.68l3.072 2.048c24.576 12.8 56.832 4.608 74.24-17.408l2.048-3.584c4.096-6.656 9.216-12.8 15.36-17.92 12.288-11.264 25.088-17.408 39.424-17.408s27.136 6.144 39.424 17.408c7.68 7.168 12.8 14.336 15.36 17.92l2.048 2.56c17.408 23.04 49.664 30.72 74.24 18.432l4.096-2.048c9.216-5.12 18.944-7.68 29.184-7.68 38.912 0 68.608 25.088 68.608 52.736 0 20.48-16.896 40.96-43.52 49.152l-4.096 1.536c-4.608 2.56-9.728 4.608-14.848 6.144-38.4 12.8-45.056 54.272-13.824 77.312 3.072 2.048 6.144 4.096 8.704 6.144 31.232 23.04 60.416 49.152 86.528 78.336 57.856 64.512 91.648 134.144 91.648 204.8 0.512 234.496-147.456 328.192-356.864 328.192z" p-id="31674"></path></svg>